<svg width="63" height="29" viewBox="0 0 63 29" fill="none" xmlns="http://www.w3.org/2000/svg">
<g filter="url(#filter0_d)">
<path d="M7.08619 0.521979H56.2655C57.4638 0.521979 58.4352 1.49338 58.4352 2.69166V17.6907C58.4352 18.8889 57.4638 19.8603 56.2655 19.8603H7.08619C5.88791 19.8603 4.91651 18.8889 4.91651 17.6907V2.69166C4.91651 1.49338 5.88791 0.521979 7.08619 0.521979Z" stroke="#00E0FF" stroke-width="0.549818"/>
</g>
<path d="M19.0364 13.2471H18.158V12.6285C17.7704 13.0904 17.2591 13.3213 16.624 13.3213C16.1374 13.3213 15.7374 13.1852 15.424 12.913C15.1188 12.6326 14.9663 12.2698 14.9663 11.8244C14.9663 11.379 15.1312 11.0409 15.4611 10.81C15.791 10.579 16.2446 10.4636 16.8219 10.4636H18.0838V10.2904C18.0838 9.68006 17.7415 9.37491 17.057 9.37491C16.6281 9.37491 16.1828 9.53161 15.7209 9.84501L15.2879 9.23882C15.857 8.79346 16.492 8.57078 17.1931 8.57078C17.7621 8.57078 18.2116 8.71511 18.5415 9.00377C18.8714 9.28418 19.0364 9.70893 19.0364 10.278V13.2471ZM18.0714 11.144H16.9828C16.2817 11.144 15.9312 11.3625 15.9312 11.7996C15.9312 12.0223 16.0178 12.1955 16.191 12.3192C16.3642 12.4347 16.6075 12.4924 16.9209 12.4924C17.2426 12.4924 17.5147 12.4058 17.7374 12.2326C17.9601 12.0512 18.0714 11.8161 18.0714 11.5275V11.144ZM20.0893 10.946C20.0893 10.2533 20.3285 9.68418 20.8068 9.23882C21.2852 8.79346 21.8749 8.57078 22.5759 8.57078C23.2687 8.57078 23.8543 8.80996 24.3326 9.28831L23.7635 9.99346C23.3677 9.64707 22.9677 9.47387 22.5635 9.47387C22.1512 9.47387 21.7965 9.60996 21.4996 9.88212C21.211 10.146 21.0666 10.4883 21.0666 10.9089C21.0666 11.3378 21.211 11.7007 21.4996 11.9976C21.7965 12.2862 22.1594 12.4306 22.5883 12.4306C23.0172 12.4306 23.4254 12.2368 23.813 11.8491L24.3821 12.4677C23.7965 13.0368 23.1491 13.3213 22.4398 13.3213C21.78 13.3213 21.2233 13.1027 20.7697 12.6656C20.3161 12.2203 20.0893 11.6471 20.0893 10.946ZM25.243 12.6656C25.243 12.4842 25.3048 12.3316 25.4286 12.2079C25.5523 12.0842 25.7048 12.0223 25.8863 12.0223C26.0677 12.0223 26.2203 12.0842 26.344 12.2079C26.476 12.3316 26.542 12.4842 26.542 12.6656C26.542 12.8471 26.476 13.0038 26.344 13.1357C26.2203 13.2594 26.0677 13.3213 25.8863 13.3213C25.6966 13.3213 25.5481 13.2553 25.4409 13.1234C25.309 12.9996 25.243 12.8471 25.243 12.6656ZM27.6688 12.6656C27.6688 12.4842 27.7306 12.3316 27.8543 12.2079C27.978 12.0842 28.1306 12.0223 28.3121 12.0223C28.4935 12.0223 28.6461 12.0842 28.7698 12.2079C28.9018 12.3316 28.9677 12.4842 28.9677 12.6656C28.9677 12.8471 28.9018 13.0038 28.7698 13.1357C28.6461 13.2594 28.4935 13.3213 28.3121 13.3213C28.1224 13.3213 27.9739 13.2553 27.8667 13.1234C27.7347 12.9996 27.6688 12.8471 27.6688 12.6656ZM29.7729 7.19759H31.975V13.2471H31.01V8.10068H29.7729V7.19759ZM37.259 13.2471H36.3807V12.6285C35.9931 13.0904 35.4817 13.3213 34.8467 13.3213C34.3601 13.3213 33.9601 13.1852 33.6467 12.913C33.3415 12.6326 33.1889 12.2698 33.1889 11.8244C33.1889 11.379 33.3539 11.0409 33.6838 10.81C34.0137 10.579 34.4673 10.4636 35.0446 10.4636H36.3065V10.2904C36.3065 9.68006 35.9642 9.37491 35.2796 9.37491C34.8508 9.37491 34.4054 9.53161 33.9436 9.84501L33.5106 9.23882C34.0796 8.79346 34.7147 8.57078 35.4157 8.57078C35.9848 8.57078 36.4343 8.71511 36.7642 9.00377C37.0941 9.28418 37.259 9.70893 37.259 10.278V13.2471ZM36.2941 11.144H35.2054C34.5044 11.144 34.1539 11.3625 34.1539 11.7996C34.1539 12.0223 34.2405 12.1955 34.4137 12.3192C34.5869 12.4347 34.8302 12.4924 35.1436 12.4924C35.4652 12.4924 35.7374 12.4058 35.9601 12.2326C36.1827 12.0512 36.2941 11.8161 36.2941 11.5275V11.144ZM38.3243 10.9213C38.3243 10.2285 38.5429 9.66357 38.98 9.22645C39.4171 8.78934 39.9532 8.57078 40.5883 8.57078C41.1986 8.57078 41.6893 8.83058 42.0604 9.35016V6.82645H43.0377V13.2471H42.0604V12.5543C41.714 13.0656 41.1945 13.3213 40.5017 13.3213C39.8996 13.3213 39.3841 13.0986 38.9553 12.6533C38.5347 12.1996 38.3243 11.6223 38.3243 10.9213ZM40.712 12.4553C41.0996 12.4553 41.4254 12.3151 41.6893 12.0347C41.9532 11.7543 42.0852 11.3955 42.0852 10.9584C42.0852 10.5295 41.9491 10.1667 41.6769 9.86975C41.413 9.57284 41.0872 9.42439 40.6996 9.42439C40.312 9.42439 39.978 9.57284 39.6975 9.86975C39.4254 10.1584 39.2893 10.5213 39.2893 10.9584C39.2893 11.3955 39.4295 11.7543 39.7099 12.0347C39.9903 12.3151 40.3243 12.4553 40.712 12.4553ZM47.9348 7.18521V8.11305H45.3863V9.59759C45.642 9.45738 45.9307 9.38728 46.2523 9.38728C46.8379 9.38728 47.3286 9.5646 47.7245 9.91923C48.1286 10.2656 48.3307 10.7234 48.3307 11.2924C48.3307 11.8698 48.1162 12.3522 47.6874 12.7399C47.2585 13.1275 46.7348 13.3213 46.1162 13.3213C45.2997 13.3213 44.6482 13.0491 44.1616 12.5048L44.7059 11.7625C44.7142 11.7708 44.7389 11.7955 44.7801 11.8368C44.8296 11.8698 44.8709 11.8986 44.9039 11.9234C45.0028 12.0058 45.1719 12.0966 45.4111 12.1955C45.6585 12.2862 45.91 12.3316 46.1657 12.3316C46.4791 12.3316 46.7472 12.2409 46.9698 12.0594C47.2008 11.878 47.3162 11.6306 47.3162 11.3172C47.3162 10.9955 47.1925 10.744 46.9451 10.5625C46.6977 10.3728 46.3801 10.278 45.9925 10.278C45.6131 10.278 45.2461 10.3728 44.8915 10.5625L44.4585 10.0924V7.18521H47.9348Z" fill="#00E0FF"/>
<path d="M19.0364 13.2471V13.522H19.3113V13.2471H19.0364ZM18.158 13.2471H17.8831V13.522H18.158V13.2471ZM18.158 12.6285H18.4329V11.8733L17.9475 12.4518L18.158 12.6285ZM15.424 12.913L15.2379 13.1156L15.2437 13.1206L15.424 12.913ZM15.4611 10.81L15.6188 11.0352L15.6188 11.0352L15.4611 10.81ZM18.0838 10.4636V10.7385H18.3587V10.4636H18.0838ZM15.7209 9.84501L15.4972 10.0048L15.6532 10.2232L15.8753 10.0725L15.7209 9.84501ZM15.2879 9.23882L15.1185 9.02233L14.9113 9.1845L15.0642 9.39861L15.2879 9.23882ZM18.5415 9.00377L18.3605 9.21068L18.3635 9.21324L18.5415 9.00377ZM18.0714 11.144H18.3463V10.8691H18.0714V11.144ZM16.191 12.3192L16.0311 12.5431L16.0385 12.548L16.191 12.3192ZM17.7374 12.2326L17.9062 12.4497L17.9111 12.4458L17.7374 12.2326ZM19.0364 12.9722H18.158V13.522H19.0364V12.9722ZM18.4329 13.2471V12.6285H17.8831V13.2471H18.4329ZM17.9475 12.4518C17.6152 12.8477 17.1828 13.0464 16.624 13.0464V13.5962C17.3354 13.5962 17.9256 13.333 18.3686 12.8052L17.9475 12.4518ZM16.624 13.0464C16.1916 13.0464 15.8592 12.9269 15.6043 12.7055L15.2437 13.1206C15.6156 13.4435 16.0832 13.5962 16.624 13.5962V13.0464ZM15.61 12.7106C15.3661 12.4865 15.2412 12.1992 15.2412 11.8244H14.6914C14.6914 12.3403 14.8716 12.7788 15.238 13.1155L15.61 12.7106ZM15.2412 11.8244C15.2412 11.4576 15.371 11.2086 15.6188 11.0352L15.3035 10.5847C14.8914 10.8732 14.6914 11.3004 14.6914 11.8244H15.2412ZM15.6188 11.0352C15.8864 10.8478 16.2776 10.7385 16.8219 10.7385V10.1887C16.2117 10.1887 15.6957 10.3102 15.3035 10.5847L15.6188 11.0352ZM16.8219 10.7385H18.0838V10.1887H16.8219V10.7385ZM18.3587 10.4636V10.2904H17.8089V10.4636H18.3587ZM18.3587 10.2904C18.3587 9.93415 18.2574 9.61908 18.01 9.39857C17.7687 9.18342 17.4344 9.1 17.057 9.1V9.64981C17.3642 9.64981 17.5432 9.71896 17.6441 9.80897C17.7391 9.89361 17.8089 10.0363 17.8089 10.2904H18.3587ZM17.057 9.1C16.5587 9.1 16.0604 9.28245 15.5665 9.61753L15.8753 10.0725C16.3052 9.78077 16.6976 9.64981 17.057 9.64981V9.1ZM15.9446 9.68522L15.5116 9.07904L15.0642 9.39861L15.4972 10.0048L15.9446 9.68522ZM15.4573 9.45531C15.9797 9.04655 16.5555 8.84569 17.1931 8.84569V8.29587C16.4286 8.29587 15.7343 8.54038 15.1185 9.02233L15.4573 9.45531ZM17.1931 8.84569C17.7159 8.84569 18.0941 8.97759 18.3605 9.21066L18.7226 8.79688C18.3291 8.45263 17.8084 8.29587 17.1931 8.29587V8.84569ZM18.3635 9.21324C18.614 9.42613 18.7615 9.76254 18.7615 10.278H19.3113C19.3113 9.65531 19.1289 9.14224 18.7196 8.79431L18.3635 9.21324ZM18.7615 10.278V13.2471H19.3113V10.278H18.7615ZM18.0714 10.8691H16.9828V11.4189H18.0714V10.8691ZM16.9828 10.8691C16.6126 10.8691 16.2883 10.9252 16.0487 11.0746C15.7874 11.2375 15.6563 11.4929 15.6563 11.7996H16.2061C16.2061 11.6693 16.2503 11.5968 16.3396 11.5412C16.4504 11.4721 16.6519 11.4189 16.9828 11.4189V10.8691ZM15.6563 11.7996C15.6563 12.1063 15.7819 12.3649 16.0312 12.5429L16.3508 12.0955C16.2537 12.0262 16.2061 11.9384 16.2061 11.7996H15.6563ZM16.0385 12.548C16.2743 12.7052 16.5789 12.7673 16.9209 12.7673V12.2175C16.6361 12.2175 16.4541 12.1642 16.3435 12.0905L16.0385 12.548ZM16.9209 12.7673C17.2947 12.7673 17.6286 12.6655 17.9062 12.4496L17.5686 12.0156C17.4008 12.1461 17.1904 12.2175 16.9209 12.2175V12.7673ZM17.9111 12.4458C18.1982 12.2118 18.3463 11.8983 18.3463 11.5275H17.7965C17.7965 11.734 17.722 11.8906 17.5638 12.0195L17.9111 12.4458ZM18.3463 11.5275V11.144H17.7965V11.5275H18.3463ZM20.8068 9.23882L20.6195 9.03762L20.6195 9.03762L20.8068 9.23882ZM24.3326 9.28831L24.5466 9.46096L24.7017 9.26865L24.527 9.09392L24.3326 9.28831ZM23.7635 9.99346L23.5825 10.2004L23.7978 10.3887L23.9775 10.1661L23.7635 9.99346ZM21.4996 9.88212L21.6851 10.085L21.6854 10.0848L21.4996 9.88212ZM21.4996 11.9976L21.3024 12.1893L21.308 12.1947L21.4996 11.9976ZM23.813 11.8491L24.0153 11.663L23.8213 11.4521L23.6186 11.6547L23.813 11.8491ZM24.3821 12.4677L24.5737 12.6648L24.7655 12.4784L24.5844 12.2816L24.3821 12.4677ZM20.7697 12.6656L20.5771 12.8618L20.579 12.8636L20.7697 12.6656ZM20.3642 10.946C20.3642 10.3244 20.5753 9.82998 20.9942 9.44003L20.6195 9.03762C20.0817 9.53839 19.8144 10.1821 19.8144 10.946H20.3642ZM20.9942 9.44003C21.4177 9.04567 21.9389 8.84569 22.5759 8.84569V8.29587C21.8109 8.29587 21.1527 8.54125 20.6195 9.03762L20.9942 9.44003ZM22.5759 8.84569C23.1978 8.84569 23.7128 9.05728 24.1382 9.4827L24.527 9.09392C23.9957 8.56264 23.3396 8.29587 22.5759 8.29587V8.84569ZM24.1187 9.11566L23.5496 9.82081L23.9775 10.1661L24.5466 9.46096L24.1187 9.11566ZM23.9446 9.78657C23.514 9.40984 23.0523 9.19897 22.5635 9.19897V9.74878C22.8831 9.74878 23.2213 9.8843 23.5825 10.2004L23.9446 9.78657ZM22.5635 9.19897C22.0842 9.19897 21.6628 9.35962 21.3139 9.67947L21.6854 10.0848C21.9303 9.86029 22.2181 9.74878 22.5635 9.74878V9.19897ZM21.3141 9.67923C20.9639 9.99948 20.7917 10.4177 20.7917 10.9089H21.3415C21.3415 10.559 21.4581 10.2926 21.6851 10.085L21.3141 9.67923ZM20.7917 10.9089C20.7917 11.4065 20.962 11.839 21.3025 12.1892L21.6967 11.806C21.4599 11.5624 21.3415 11.2691 21.3415 10.9089H20.7917ZM21.308 12.1947C21.6582 12.5352 22.0907 12.7055 22.5883 12.7055V12.1557C22.2282 12.1557 21.9349 12.0373 21.6913 11.8005L21.308 12.1947ZM22.5883 12.7055C23.1089 12.7055 23.5833 12.4677 24.0074 12.0435L23.6186 11.6547C23.2675 12.0059 22.9254 12.1557 22.5883 12.1557V12.7055ZM23.6107 12.0353L24.1798 12.6538L24.5844 12.2816L24.0153 11.663L23.6107 12.0353ZM24.1905 12.2705C23.6479 12.7979 23.0667 13.0464 22.4398 13.0464V13.5962C23.2316 13.5962 23.9452 13.2756 24.5737 12.6648L24.1905 12.2705ZM22.4398 13.0464C21.8475 13.0464 21.3602 12.8529 20.9605 12.4677L20.579 12.8636C21.0864 13.3526 21.7126 13.5962 22.4398 13.5962V13.0464ZM20.9623 12.4695C20.567 12.0814 20.3642 11.5816 20.3642 10.946H19.8144C19.8144 11.7125 20.0652 12.3592 20.5771 12.8618L20.9623 12.4695ZM25.4286 12.2079L25.6229 12.4023L25.6229 12.4023L25.4286 12.2079ZM26.344 12.2079L26.1495 12.4024L26.156 12.4085L26.344 12.2079ZM26.344 13.1357L26.5384 13.3301L26.5384 13.3301L26.344 13.1357ZM25.4409 13.1234L25.6543 12.95L25.6425 12.9355L25.6289 12.9228L25.4409 13.1234ZM25.5179 12.6656C25.5179 12.5541 25.5529 12.4723 25.6229 12.4023L25.2342 12.0135C25.0568 12.1909 24.9681 12.4143 24.9681 12.6656H25.5179ZM25.6229 12.4023C25.693 12.3322 25.7747 12.2972 25.8863 12.2972V11.7474C25.635 11.7474 25.4115 11.8361 25.2342 12.0135L25.6229 12.4023ZM25.8863 12.2972C25.9978 12.2972 26.0796 12.3322 26.1496 12.4023L26.5384 12.0135C26.361 11.8361 26.1376 11.7474 25.8863 11.7474V12.2972ZM26.156 12.4085C26.2323 12.48 26.267 12.5599 26.267 12.6656H26.8169C26.8169 12.4085 26.7196 12.1832 26.532 12.0073L26.156 12.4085ZM26.267 12.6656C26.267 12.7719 26.2317 12.8593 26.1496 12.9413L26.5384 13.3301C26.7203 13.1483 26.8169 12.9223 26.8169 12.6656H26.267ZM26.1496 12.9413C26.0796 13.0114 25.9978 13.0464 25.8863 13.0464V13.5962C26.1376 13.5962 26.361 13.5075 26.5384 13.3301L26.1496 12.9413ZM25.8863 13.0464C25.7685 13.0464 25.7028 13.0097 25.6543 12.95L25.2276 13.2967C25.3935 13.5009 25.6247 13.5962 25.8863 13.5962V13.0464ZM25.6289 12.9228C25.5526 12.8512 25.5179 12.7714 25.5179 12.6656H24.9681C24.9681 12.9228 25.0653 13.148 25.2529 13.3239L25.6289 12.9228ZM27.8543 12.2079L28.0487 12.4023L28.0487 12.4023L27.8543 12.2079ZM28.7698 12.2079L28.5753 12.4024L28.5818 12.4085L28.7698 12.2079ZM28.7698 13.1357L28.9642 13.3301L28.9642 13.3301L28.7698 13.1357ZM27.8667 13.1234L28.0801 12.95L28.0683 12.9355L28.0547 12.9228L27.8667 13.1234ZM27.9437 12.6656C27.9437 12.5541 27.9787 12.4723 28.0487 12.4023L27.6599 12.0135C27.4826 12.1909 27.3939 12.4143 27.3939 12.6656H27.9437ZM28.0487 12.4023C28.1188 12.3322 28.2005 12.2972 28.3121 12.2972V11.7474C28.0607 11.7474 27.8373 11.8361 27.6599 12.0135L28.0487 12.4023ZM28.3121 12.2972C28.4236 12.2972 28.5053 12.3322 28.5754 12.4023L28.9642 12.0135C28.7868 11.8361 28.5634 11.7474 28.3121 11.7474V12.2972ZM28.5818 12.4085C28.6581 12.48 28.6928 12.5599 28.6928 12.6656H29.2426C29.2426 12.4085 29.1454 12.1832 28.9578 12.0073L28.5818 12.4085ZM28.6928 12.6656C28.6928 12.7719 28.6575 12.8593 28.5754 12.9413L28.9642 13.3301C29.1461 13.1483 29.2426 12.9223 29.2426 12.6656H28.6928ZM28.5754 12.9413C28.5053 13.0114 28.4236 13.0464 28.3121 13.0464V13.5962C28.5634 13.5962 28.7868 13.5075 28.9642 13.3301L28.5754 12.9413ZM28.3121 13.0464C28.1943 13.0464 28.1286 13.0097 28.0801 12.95L27.6533 13.2967C27.8192 13.5009 28.0504 13.5962 28.3121 13.5962V13.0464ZM28.0547 12.9228C27.9784 12.8512 27.9437 12.7714 27.9437 12.6656H27.3939C27.3939 12.9228 27.4911 13.148 27.6787 13.3239L28.0547 12.9228ZM29.7729 7.19759V6.92268H29.498V7.19759H29.7729ZM31.975 7.19759H32.2499V6.92268H31.975V7.19759ZM31.975 13.2471V13.522H32.2499V13.2471H31.975ZM31.01 13.2471H30.7351V13.522H31.01V13.2471ZM31.01 8.10068H31.2849V7.82577H31.01V8.10068ZM29.7729 8.10068H29.498V8.37559H29.7729V8.10068ZM29.7729 7.47249H31.975V6.92268H29.7729V7.47249ZM31.7001 7.19759V13.2471H32.2499V7.19759H31.7001ZM31.975 12.9722H31.01V13.522H31.975V12.9722ZM31.2849 13.2471V8.10068H30.7351V13.2471H31.2849ZM31.01 7.82577H29.7729V8.37559H31.01V7.82577ZM30.0478 8.10068V7.19759H29.498V8.10068H30.0478ZM37.259 13.2471V13.522H37.5339V13.2471H37.259ZM36.3807 13.2471H36.1058V13.522H36.3807V13.2471ZM36.3807 12.6285H36.6556V11.8733L36.1701 12.4518L36.3807 12.6285ZM33.6467 12.913L33.4606 13.1156L33.4664 13.1206L33.6467 12.913ZM33.6838 10.81L33.8414 11.0352L33.8414 11.0352L33.6838 10.81ZM36.3065 10.4636V10.7385H36.5814V10.4636H36.3065ZM33.9436 9.84501L33.7199 10.0048L33.8759 10.2232L34.0979 10.0725L33.9436 9.84501ZM33.5106 9.23882L33.3411 9.02233L33.1339 9.1845L33.2869 9.39861L33.5106 9.23882ZM36.7642 9.00377L36.5831 9.21068L36.5861 9.21324L36.7642 9.00377ZM36.2941 11.144H36.569V10.8691H36.2941V11.144ZM34.4137 12.3192L34.2538 12.5431L34.2612 12.548L34.4137 12.3192ZM35.9601 12.2326L36.1289 12.4497L36.1337 12.4458L35.9601 12.2326ZM37.259 12.9722H36.3807V13.522H37.259V12.9722ZM36.6556 13.2471V12.6285H36.1058V13.2471H36.6556ZM36.1701 12.4518C35.8378 12.8477 35.4054 13.0464 34.8467 13.0464V13.5962C35.558 13.5962 36.1483 13.333 36.5913 12.8052L36.1701 12.4518ZM34.8467 13.0464C34.4142 13.0464 34.0819 12.9269 33.8269 12.7055L33.4664 13.1206C33.8382 13.4435 34.3059 13.5962 34.8467 13.5962V13.0464ZM33.8327 12.7106C33.5887 12.4865 33.4638 12.1992 33.4638 11.8244H32.914C32.914 12.3403 33.0943 12.7788 33.4606 13.1155L33.8327 12.7106ZM33.4638 11.8244C33.4638 11.4576 33.5937 11.2086 33.8414 11.0352L33.5261 10.5847C33.1141 10.8732 32.914 11.3004 32.914 11.8244H33.4638ZM33.8414 11.0352C34.109 10.8478 34.5002 10.7385 35.0446 10.7385V10.1887C34.4343 10.1887 33.9183 10.3102 33.5261 10.5847L33.8414 11.0352ZM35.0446 10.7385H36.3065V10.1887H35.0446V10.7385ZM36.5814 10.4636V10.2904H36.0315V10.4636H36.5814ZM36.5814 10.2904C36.5814 9.93415 36.48 9.61908 36.2327 9.39857C35.9914 9.18342 35.657 9.1 35.2796 9.1V9.64981C35.5868 9.64981 35.7659 9.71896 35.8668 9.80897C35.9617 9.89361 36.0315 10.0363 36.0315 10.2904H36.5814ZM35.2796 9.1C34.7813 9.1 34.283 9.28245 33.7892 9.61753L34.0979 10.0725C34.5278 9.78077 34.9202 9.64981 35.2796 9.64981V9.1ZM34.1673 9.68522L33.7343 9.07904L33.2869 9.39861L33.7199 10.0048L34.1673 9.68522ZM33.68 9.45531C34.2023 9.04655 34.7781 8.84569 35.4157 8.84569V8.29587C34.6513 8.29587 33.957 8.54038 33.3411 9.02233L33.68 9.45531ZM35.4157 8.84569C35.9385 8.84569 36.3168 8.97759 36.5832 9.21066L36.9452 8.79688C36.5518 8.45263 36.0311 8.29587 35.4157 8.29587V8.84569ZM36.5861 9.21324C36.8366 9.42613 36.9841 9.76254 36.9841 10.278H37.5339C37.5339 9.65531 37.3516 9.14224 36.9422 8.79431L36.5861 9.21324ZM36.9841 10.278V13.2471H37.5339V10.278H36.9841ZM36.2941 10.8691H35.2054V11.4189H36.2941V10.8691ZM35.2054 10.8691C34.8352 10.8691 34.511 10.9252 34.2713 11.0746C34.01 11.2375 33.879 11.4929 33.879 11.7996H34.4288C34.4288 11.6693 34.473 11.5968 34.5622 11.5412C34.673 11.4721 34.8746 11.4189 35.2054 11.4189V10.8691ZM33.879 11.7996C33.879 12.1063 34.0046 12.3649 34.2539 12.5429L34.5735 12.0955C34.4764 12.0262 34.4288 11.9384 34.4288 11.7996H33.879ZM34.2612 12.548C34.497 12.7052 34.8016 12.7673 35.1436 12.7673V12.2175C34.8587 12.2175 34.6767 12.1642 34.5662 12.0905L34.2612 12.548ZM35.1436 12.7673C35.5174 12.7673 35.8513 12.6655 36.1288 12.4496L35.7913 12.0156C35.6235 12.1461 35.4131 12.2175 35.1436 12.2175V12.7673ZM36.1337 12.4458C36.4208 12.2118 36.569 11.8983 36.569 11.5275H36.0192C36.0192 11.734 35.9446 11.8906 35.7864 12.0195L36.1337 12.4458ZM36.569 11.5275V11.144H36.0192V11.5275H36.569ZM38.98 9.22645L38.7856 9.03206L38.7856 9.03206L38.98 9.22645ZM42.0604 9.35016L41.8367 9.50995L42.3353 10.208V9.35016H42.0604ZM42.0604 6.82645V6.55154H41.7855V6.82645H42.0604ZM43.0377 6.82645H43.3127V6.55154H43.0377V6.82645ZM43.0377 13.2471V13.522H43.3127V13.2471H43.0377ZM42.0604 13.2471H41.7855V13.522H42.0604V13.2471ZM42.0604 12.5543H42.3353V11.6583L41.8328 12.4001L42.0604 12.5543ZM38.9553 12.6533L38.7537 12.8402L38.7573 12.8439L38.9553 12.6533ZM41.6893 12.0347L41.8895 12.2231L41.8895 12.2231L41.6893 12.0347ZM41.6769 9.86975L41.4714 10.0524L41.4743 10.0555L41.6769 9.86975ZM39.6975 9.86975L39.4977 9.68099L39.4975 9.68116L39.6975 9.86975ZM39.7099 12.0347L39.9043 11.8403L39.9043 11.8403L39.7099 12.0347ZM38.5993 10.9213C38.5993 10.2918 38.7953 9.79998 39.1744 9.42084L38.7856 9.03206C38.2905 9.52715 38.0494 10.1652 38.0494 10.9213H38.5993ZM39.1744 9.42084C39.5584 9.03684 40.0239 8.84569 40.5883 8.84569V8.29587C39.8825 8.29587 39.2759 8.54184 38.7856 9.03206L39.1744 9.42084ZM40.5883 8.84569C41.1051 8.84569 41.5144 9.05866 41.8367 9.50995L42.2841 9.19038C41.8642 8.60249 41.2921 8.29587 40.5883 8.29587V8.84569ZM42.3353 9.35016V6.82645H41.7855V9.35016H42.3353ZM42.0604 7.10136H43.0377V6.55154H42.0604V7.10136ZM42.7628 6.82645V13.2471H43.3127V6.82645H42.7628ZM43.0377 12.9722H42.0604V13.522H43.0377V12.9722ZM42.3353 13.2471V12.5543H41.7855V13.2471H42.3353ZM41.8328 12.4001C41.5445 12.8258 41.1162 13.0464 40.5017 13.0464V13.5962C41.2727 13.5962 41.8836 13.3055 42.288 12.7085L41.8328 12.4001ZM40.5017 13.0464C39.9766 13.0464 39.5319 12.8557 39.1533 12.4626L38.7573 12.8439C39.2364 13.3415 39.8227 13.5962 40.5017 13.5962V13.0464ZM39.1569 12.4663C38.7897 12.0704 38.5993 11.5629 38.5993 10.9213H38.0494C38.0494 11.6817 38.2796 12.3289 38.7537 12.8402L39.1569 12.4663ZM40.712 12.7302C41.1748 12.7302 41.5732 12.5591 41.8895 12.2231L41.4891 11.8463C41.2775 12.0711 41.0244 12.1804 40.712 12.1804V12.7302ZM41.8895 12.2231C42.208 11.8847 42.3601 11.4553 42.3601 10.9584H41.8103C41.8103 11.3357 41.6985 11.6238 41.4891 11.8463L41.8895 12.2231ZM42.3601 10.9584C42.3601 10.4656 42.2014 10.0351 41.8796 9.68399L41.4743 10.0555C41.6968 10.2982 41.8103 10.5934 41.8103 10.9584H42.3601ZM41.8824 9.68711C41.5678 9.33318 41.168 9.14948 40.6996 9.14948V9.6993C41.0065 9.6993 41.2582 9.81251 41.4715 10.0524L41.8824 9.68711ZM40.6996 9.14948C40.2319 9.14948 39.8269 9.3324 39.4977 9.68099L39.8974 10.0585C40.129 9.81328 40.392 9.6993 40.6996 9.6993V9.14948ZM39.4975 9.68116C39.1722 10.0262 39.0144 10.4589 39.0144 10.9584H39.5642C39.5642 10.5836 39.6786 10.2906 39.8976 10.0583L39.4975 9.68116ZM39.0144 10.9584C39.0144 11.4602 39.178 11.8916 39.5155 12.2291L39.9043 11.8403C39.681 11.617 39.5642 11.3308 39.5642 10.9584H39.0144ZM39.5155 12.2291C39.8462 12.5597 40.2496 12.7302 40.712 12.7302V12.1804C40.3991 12.1804 40.1345 12.0705 39.9043 11.8403L39.5155 12.2291ZM47.9348 7.18521H48.2097V6.91031H47.9348V7.18521ZM47.9348 8.11305V8.38796H48.2097V8.11305H47.9348ZM45.3863 8.11305V7.83814H45.1114V8.11305H45.3863ZM45.3863 9.59759H45.1114V10.0619L45.5185 9.83863L45.3863 9.59759ZM47.7245 9.91923L47.541 10.124L47.5456 10.128L47.7245 9.91923ZM47.6874 12.7399L47.8717 12.9438L47.8717 12.9438L47.6874 12.7399ZM44.1616 12.5048L43.9399 12.3422L43.8081 12.5219L43.9566 12.688L44.1616 12.5048ZM44.7059 11.7625L44.9003 11.5681L44.6737 11.3416L44.4842 11.6L44.7059 11.7625ZM44.7801 11.8368L44.5858 12.0312L44.605 12.0504L44.6277 12.0655L44.7801 11.8368ZM44.9039 11.9234L45.0801 11.7119L45.0688 11.7034L44.9039 11.9234ZM45.4111 12.1955L45.3059 12.4498L45.3164 12.4536L45.4111 12.1955ZM46.9698 12.0594L46.8 11.8432L46.7962 11.8463L46.9698 12.0594ZM46.9451 10.5625L46.7778 10.7808L46.7825 10.7842L46.9451 10.5625ZM44.8915 10.5625L44.6893 10.7488L44.8335 10.9053L45.0211 10.8049L44.8915 10.5625ZM44.4585 10.0924H44.1836V10.1997L44.2563 10.2787L44.4585 10.0924ZM44.4585 7.18521V6.91031H44.1836V7.18521H44.4585ZM47.6599 7.18521V8.11305H48.2097V7.18521H47.6599ZM47.9348 7.83814H45.3863V8.38796H47.9348V7.83814ZM45.1114 8.11305V9.59759H45.6612V8.11305H45.1114ZM45.5185 9.83863C45.7296 9.72287 45.972 9.66219 46.2523 9.66219V9.11237C45.8893 9.11237 45.5544 9.19189 45.2541 9.35654L45.5185 9.83863ZM46.2523 9.66219C46.7776 9.66219 47.2009 9.81926 47.541 10.124L47.9079 9.71447C47.4563 9.30994 46.8981 9.11237 46.2523 9.11237V9.66219ZM47.5456 10.128C47.8841 10.4182 48.0558 10.7973 48.0558 11.2924H48.6056C48.6056 10.6494 48.3731 10.1131 47.9034 9.71051L47.5456 10.128ZM48.0558 11.2924C48.0558 11.7919 47.8743 12.2003 47.503 12.5359L47.8717 12.9438C48.3581 12.5041 48.6056 11.9476 48.6056 11.2924H48.0558ZM47.503 12.5359C47.1284 12.8745 46.6719 13.0464 46.1162 13.0464V13.5962C46.7977 13.5962 47.3886 13.3805 47.8717 12.9438L47.503 12.5359ZM46.1162 13.0464C45.3677 13.0464 44.7945 12.8003 44.3665 12.3216L43.9566 12.688C44.5019 13.298 45.2318 13.5962 46.1162 13.5962V13.0464ZM44.3833 12.6674L44.9276 11.9251L44.4842 11.6L43.9399 12.3422L44.3833 12.6674ZM44.5115 11.9569C44.5115 11.9569 44.5116 11.957 44.5116 11.957C44.5116 11.957 44.5116 11.957 44.5116 11.957C44.5116 11.957 44.5117 11.9571 44.5117 11.9571C44.5117 11.9571 44.5117 11.9571 44.5117 11.9571C44.5117 11.9571 44.5118 11.9572 44.5118 11.9572C44.5118 11.9572 44.5118 11.9572 44.5118 11.9572C44.5118 11.9572 44.5119 11.9573 44.5119 11.9573C44.5119 11.9573 44.5119 11.9573 44.5119 11.9573C44.5119 11.9573 44.512 11.9574 44.512 11.9574C44.512 11.9574 44.512 11.9574 44.512 11.9574C44.512 11.9574 44.5121 11.9575 44.5121 11.9575C44.5121 11.9575 44.5121 11.9575 44.5121 11.9575C44.5122 11.9575 44.5122 11.9576 44.5122 11.9576C44.5122 11.9576 44.5122 11.9576 44.5122 11.9576C44.5123 11.9577 44.5123 11.9577 44.5123 11.9577C44.5123 11.9577 44.5123 11.9577 44.5124 11.9577C44.5124 11.9578 44.5124 11.9578 44.5124 11.9578C44.5124 11.9578 44.5124 11.9578 44.5125 11.9579C44.5125 11.9579 44.5125 11.9579 44.5125 11.9579C44.5125 11.9579 44.5126 11.9579 44.5126 11.958C44.5126 11.958 44.5126 11.958 44.5126 11.958C44.5126 11.958 44.5127 11.9581 44.5127 11.9581C44.5127 11.9581 44.5127 11.9581 44.5127 11.9581C44.5128 11.9582 44.5128 11.9582 44.5128 11.9582C44.5128 11.9582 44.5128 11.9582 44.5129 11.9583C44.5129 11.9583 44.5129 11.9583 44.5129 11.9583C44.5129 11.9583 44.513 11.9583 44.513 11.9584C44.513 11.9584 44.513 11.9584 44.513 11.9584C44.513 11.9584 44.5131 11.9585 44.5131 11.9585C44.5131 11.9585 44.5131 11.9585 44.5131 11.9585C44.5132 11.9586 44.5132 11.9586 44.5132 11.9586C44.5132 11.9586 44.5132 11.9586 44.5133 11.9587C44.5133 11.9587 44.5133 11.9587 44.5133 11.9587C44.5133 11.9587 44.5134 11.9588 44.5134 11.9588C44.5134 11.9588 44.5134 11.9588 44.5135 11.9588C44.5135 11.9589 44.5135 11.9589 44.5135 11.9589C44.5135 11.9589 44.5136 11.9589 44.5136 11.959C44.5136 11.959 44.5136 11.959 44.5136 11.959C44.5137 11.9591 44.5137 11.9591 44.5137 11.9591C44.5137 11.9591 44.5137 11.9591 44.5138 11.9592C44.5138 11.9592 44.5138 11.9592 44.5138 11.9592C44.5138 11.9592 44.5139 11.9593 44.5139 11.9593C44.5139 11.9593 44.5139 11.9593 44.514 11.9594C44.514 11.9594 44.514 11.9594 44.514 11.9594C44.514 11.9594 44.5141 11.9595 44.5141 11.9595C44.5141 11.9595 44.5141 11.9595 44.5142 11.9595C44.5142 11.9596 44.5142 11.9596 44.5142 11.9596C44.5142 11.9596 44.5143 11.9597 44.5143 11.9597C44.5143 11.9597 44.5143 11.9597 44.5144 11.9597C44.5144 11.9598 44.5144 11.9598 44.5144 11.9598C44.5144 11.9598 44.5145 11.9599 44.5145 11.9599C44.5145 11.9599 44.5145 11.9599 44.5146 11.9599C44.5146 11.96 44.5146 11.96 44.5146 11.96C44.5146 11.96 44.5147 11.9601 44.5147 11.9601C44.5147 11.9601 44.5147 11.9601 44.5148 11.9602C44.5148 11.9602 44.5148 11.9602 44.5148 11.9602C44.5149 11.9602 44.5149 11.9603 44.5149 11.9603C44.5149 11.9603 44.5149 11.9603 44.515 11.9604C44.515 11.9604 44.515 11.9604 44.515 11.9604C44.5151 11.9605 44.5151 11.9605 44.5151 11.9605C44.5151 11.9605 44.5152 11.9606 44.5152 11.9606C44.5152 11.9606 44.5152 11.9606 44.5153 11.9606C44.5153 11.9607 44.5153 11.9607 44.5153 11.9607C44.5153 11.9607 44.5154 11.9608 44.5154 11.9608C44.5154 11.9608 44.5154 11.9608 44.5155 11.9609C44.5155 11.9609 44.5155 11.9609 44.5155 11.9609C44.5156 11.961 44.5156 11.961 44.5156 11.961C44.5156 11.961 44.5157 11.9611 44.5157 11.9611C44.5157 11.9611 44.5157 11.9611 44.5158 11.9612C44.5158 11.9612 44.5158 11.9612 44.5158 11.9612C44.5159 11.9613 44.5159 11.9613 44.5159 11.9613C44.5159 11.9613 44.516 11.9614 44.516 11.9614C44.516 11.9614 44.516 11.9614 44.5161 11.9615C44.5161 11.9615 44.5161 11.9615 44.5161 11.9615C44.5162 11.9616 44.5162 11.9616 44.5162 11.9616C44.5162 11.9616 44.5163 11.9617 44.5163 11.9617C44.5163 11.9617 44.5163 11.9617 44.5164 11.9618C44.5164 11.9618 44.5164 11.9618 44.5164 11.9618C44.5165 11.9619 44.5165 11.9619 44.5165 11.9619C44.5166 11.9619 44.5166 11.962 44.5166 11.962C44.5166 11.962 44.5167 11.9621 44.5167 11.9621C44.5167 11.9621 44.5167 11.9621 44.5168 11.9622C44.5168 11.9622 44.5168 11.9622 44.5168 11.9622C44.5169 11.9623 44.5169 11.9623 44.5169 11.9623C44.5169 11.9623 44.517 11.9624 44.517 11.9624C44.517 11.9624 44.5171 11.9624 44.5171 11.9625C44.5171 11.9625 44.5171 11.9625 44.5172 11.9626C44.5172 11.9626 44.5172 11.9626 44.5172 11.9626C44.5173 11.9627 44.5173 11.9627 44.5173 11.9627C44.5174 11.9627 44.5174 11.9628 44.5174 11.9628C44.5174 11.9628 44.5175 11.9629 44.5175 11.9629C44.5175 11.9629 44.5175 11.9629 44.5176 11.963C44.5176 11.963 44.5176 11.963 44.5177 11.9631C44.5177 11.9631 44.5177 11.9631 44.5177 11.9631C44.5178 11.9632 44.5178 11.9632 44.5178 11.9632C44.5179 11.9632 44.5179 11.9633 44.5179 11.9633C44.5179 11.9633 44.518 11.9634 44.518 11.9634C44.518 11.9634 44.518 11.9634 44.5181 11.9635C44.5181 11.9635 44.5181 11.9635 44.5182 11.9636C44.5182 11.9636 44.5182 11.9636 44.5182 11.9636C44.5183 11.9637 44.5183 11.9637 44.5183 11.9637C44.5184 11.9638 44.5184 11.9638 44.5184 11.9638C44.5185 11.9638 44.5185 11.9639 44.5185 11.9639C44.5185 11.9639 44.5186 11.964 44.5186 11.964C44.5186 11.964 44.5187 11.9641 44.5187 11.9641C44.5187 11.9641 44.5187 11.9641 44.5188 11.9642C44.5188 11.9642 44.5188 11.9642 44.5189 11.9643C44.5189 11.9643 44.5189 11.9643 44.519 11.9643C44.519 11.9644 44.519 11.9644 44.519 11.9644C44.5191 11.9645 44.5191 11.9645 44.5191 11.9645C44.5192 11.9646 44.5192 11.9646 44.5192 11.9646C44.5192 11.9646 44.5193 11.9647 44.5193 11.9647C44.5193 11.9647 44.5194 11.9648 44.5194 11.9648C44.5194 11.9648 44.5195 11.9649 44.5195 11.9649C44.5195 11.9649 44.5196 11.9649 44.5196 11.965C44.5196 11.965 44.5196 11.965 44.5197 11.9651C44.5197 11.9651 44.5197 11.9651 44.5198 11.9652C44.5198 11.9652 44.5198 11.9652 44.5199 11.9653C44.5199 11.9653 44.5199 11.9653 44.52 11.9653C44.52 11.9654 44.52 11.9654 44.52 11.9654C44.5201 11.9655 44.5201 11.9655 44.5201 11.9655C44.5202 11.9656 44.5202 11.9656 44.5202 11.9656C44.5203 11.9657 44.5203 11.9657 44.5203 11.9657C44.5204 11.9658 44.5204 11.9658 44.5204 11.9658C44.5205 11.9659 44.5205 11.9659 44.5205 11.9659C44.5206 11.9659 44.5206 11.966 44.5206 11.966C44.5206 11.966 44.5207 11.9661 44.5207 11.9661C44.5207 11.9661 44.5208 11.9662 44.5208 11.9662C44.5208 11.9662 44.5209 11.9663 44.5209 11.9663C44.5209 11.9663 44.521 11.9664 44.521 11.9664C44.521 11.9664 44.5211 11.9665 44.5211 11.9665C44.5211 11.9665 44.5212 11.9666 44.5212 11.9666C44.5212 11.9666 44.5213 11.9667 44.5213 11.9667C44.5213 11.9667 44.5214 11.9668 44.5214 11.9668C44.5214 11.9668 44.5215 11.9669 44.5215 11.9669C44.5215 11.9669 44.5216 11.967 44.5216 11.967C44.5216 11.967 44.5217 11.9671 44.5217 11.9671C44.5217 11.9671 44.5218 11.9672 44.5218 11.9672C44.5218 11.9672 44.5219 11.9673 44.5219 11.9673C44.5219 11.9673 44.522 11.9674 44.522 11.9674C44.522 11.9674 44.5221 11.9675 44.5221 11.9675C44.5221 11.9675 44.5222 11.9676 44.5222 11.9676C44.5222 11.9676 44.5223 11.9677 44.5223 11.9677C44.5223 11.9677 44.5224 11.9678 44.5224 11.9678C44.5224 11.9678 44.5225 11.9679 44.5225 11.9679C44.5225 11.9679 44.5226 11.968 44.5226 11.968C44.5226 11.968 44.5227 11.9681 44.5227 11.9681C44.5227 11.9681 44.5228 11.9682 44.5228 11.9682C44.5229 11.9682 44.5229 11.9683 44.5229 11.9683C44.523 11.9684 44.523 11.9684 44.523 11.9684C44.5231 11.9685 44.5231 11.9685 44.5231 11.9685C44.5232 11.9686 44.5232 11.9686 44.5232 11.9686C44.5233 11.9687 44.5233 11.9687 44.5233 11.9687C44.5234 11.9688 44.5234 11.9688 44.5234 11.9688C44.5235 11.9689 44.5235 11.9689 44.5236 11.9689C44.5236 11.969 44.5236 11.969 44.5237 11.9691C44.5237 11.9691 44.5237 11.9691 44.5238 11.9692C44.5238 11.9692 44.5238 11.9692 44.5239 11.9693C44.5239 11.9693 44.5239 11.9693 44.524 11.9694C44.524 11.9694 44.5241 11.9695 44.5241 11.9695C44.5241 11.9695 44.5242 11.9696 44.5242 11.9696C44.5242 11.9696 44.5243 11.9697 44.5243 11.9697C44.5243 11.9697 44.5244 11.9698 44.5244 11.9698C44.5245 11.9699 44.5245 11.9699 44.5245 11.9699C44.5246 11.97 44.5246 11.97 44.5246 11.97C44.5247 11.9701 44.5247 11.9701 44.5248 11.9701C44.5248 11.9702 44.5248 11.9702 44.5249 11.9703C44.5249 11.9703 44.5249 11.9703 44.525 11.9704C44.525 11.9704 44.5251 11.9704 44.5251 11.9705C44.5251 11.9705 44.5252 11.9706 44.5252 11.9706C44.5252 11.9706 44.5253 11.9707 44.5253 11.9707C44.5254 11.9707 44.5254 11.9708 44.5254 11.9708C44.5255 11.9709 44.5255 11.9709 44.5255 11.9709C44.5256 11.971 44.5256 11.971 44.5257 11.971C44.5257 11.9711 44.5257 11.9711 44.5258 11.9712C44.5258 11.9712 44.5258 11.9712 44.5259 11.9713C44.5259 11.9713 44.526 11.9714 44.526 11.9714C44.526 11.9714 44.5261 11.9715 44.5261 11.9715C44.5262 11.9715 44.5262 11.9716 44.5262 11.9716C44.5263 11.9717 44.5263 11.9717 44.5263 11.9717C44.5264 11.9718 44.5264 11.9718 44.5265 11.9719C44.5265 11.9719 44.5265 11.9719 44.5266 11.972C44.5266 11.972 44.5267 11.9721 44.5267 11.9721C44.5267 11.9721 44.5268 11.9722 44.5268 11.9722C44.5269 11.9722 44.5269 11.9723 44.5269 11.9723C44.527 11.9724 44.527 11.9724 44.527 11.9724C44.5271 11.9725 44.5271 11.9725 44.5272 11.9726C44.5272 11.9726 44.5272 11.9726 44.5273 11.9727C44.5273 11.9727 44.5274 11.9728 44.5274 11.9728C44.5274 11.9728 44.5275 11.9729 44.5275 11.9729C44.5276 11.973 44.5276 11.973 44.5276 11.973C44.5277 11.9731 44.5277 11.9731 44.5278 11.9732C44.5278 11.9732 44.5278 11.9732 44.5279 11.9733C44.5279 11.9733 44.528 11.9734 44.528 11.9734C44.528 11.9734 44.5281 11.9735 44.5281 11.9735C44.5282 11.9736 44.5282 11.9736 44.5283 11.9736C44.5283 11.9737 44.5283 11.9737 44.5284 11.9738C44.5284 11.9738 44.5285 11.9739 44.5285 11.9739C44.5285 11.9739 44.5286 11.974 44.5286 11.974C44.5287 11.9741 44.5287 11.9741 44.5287 11.9741C44.5288 11.9742 44.5288 11.9742 44.5289 11.9743C44.5289 11.9743 44.529 11.9743 44.529 11.9744C44.529 11.9744 44.5291 11.9745 44.5291 11.9745C44.5292 11.9746 44.5292 11.9746 44.5292 11.9746C44.5293 11.9747 44.5293 11.9747 44.5294 11.9748C44.5294 11.9748 44.5295 11.9748 44.5295 11.9749C44.5295 11.9749 44.5296 11.975 44.5296 11.975C44.5297 11.9751 44.5297 11.9751 44.5297 11.9751C44.5298 11.9752 44.5298 11.9752 44.5299 11.9753C44.5299 11.9753 44.53 11.9754 44.53 11.9754C44.53 11.9754 44.5301 11.9755 44.5301 11.9755C44.5302 11.9756 44.5302 11.9756 44.5303 11.9757C44.5303 11.9757 44.5303 11.9757 44.5304 11.9758C44.5304 11.9758 44.5305 11.9759 44.5305 11.9759C44.5306 11.976 44.5306 11.976 44.5306 11.976C44.5307 11.9761 44.5307 11.9761 44.5308 11.9762C44.5308 11.9762 44.5309 11.9763 44.5309 11.9763C44.5309 11.9763 44.531 11.9764 44.531 11.9764C44.5311 11.9765 44.5311 11.9765 44.5312 11.9766C44.5312 11.9766 44.5313 11.9766 44.5313 11.9767C44.5313 11.9767 44.5314 11.9768 44.5314 11.9768C44.5315 11.9769 44.5315 11.9769 44.5316 11.977C44.5316 11.977 44.5316 11.977 44.5317 11.9771C44.5317 11.9771 44.5318 11.9772 44.5318 11.9772C44.5319 11.9773 44.5319 11.9773 44.532 11.9774C44.532 11.9774 44.532 11.9774 44.5321 11.9775C44.5321 11.9775 44.5322 11.9776 44.5322 11.9776C44.5323 11.9777 44.5323 11.9777 44.5324 11.9778C44.5324 11.9778 44.5324 11.9778 44.5325 11.9779C44.5325 11.9779 44.5326 11.978 44.5326 11.978C44.5327 11.9781 44.5327 11.9781 44.5328 11.9782C44.5328 11.9782 44.5329 11.9783 44.5329 11.9783C44.5329 11.9783 44.533 11.9784 44.533 11.9784C44.5331 11.9785 44.5331 11.9785 44.5332 11.9786C44.5332 11.9786 44.5333 11.9787 44.5333 11.9787C44.5334 11.9788 44.5334 11.9788 44.5334 11.9788C44.5335 11.9789 44.5335 11.9789 44.5336 11.979C44.5336 11.979 44.5337 11.9791 44.5337 11.9791C44.5338 11.9792 44.5338 11.9792 44.5339 11.9793C44.5339 11.9793 44.534 11.9793 44.534 11.9794C44.534 11.9794 44.5341 11.9795 44.5341 11.9795C44.5342 11.9796 44.5342 11.9796 44.5343 11.9797C44.5343 11.9797 44.5344 11.9798 44.5344 11.9798C44.5345 11.9799 44.5345 11.9799 44.5346 11.98C44.5346 11.98 44.5347 11.98 44.5347 11.9801C44.5347 11.9801 44.5348 11.9802 44.5348 11.9802C44.5349 11.9803 44.5349 11.9803 44.535 11.9804C44.535 11.9804 44.5351 11.9805 44.5351 11.9805C44.5352 11.9806 44.5352 11.9806 44.5353 11.9807C44.5353 11.9807 44.5354 11.9808 44.5354 11.9808C44.5355 11.9809 44.5355 11.9809 44.5356 11.9809C44.5356 11.981 44.5356 11.981 44.5357 11.9811C44.5357 11.9811 44.5358 11.9812 44.5358 11.9812C44.5359 11.9813 44.5359 11.9813 44.536 11.9814C44.536 11.9814 44.5361 11.9815 44.5361 11.9815C44.5362 11.9816 44.5362 11.9816 44.5363 11.9817C44.5363 11.9817 44.5364 11.9818 44.5364 11.9818C44.5365 11.9819 44.5365 11.9819 44.5366 11.982C44.5366 11.982 44.5367 11.9821 44.5367 11.9821C44.5368 11.9822 44.5368 11.9822 44.5369 11.9822C44.5369 11.9823 44.537 11.9823 44.537 11.9824C44.5371 11.9824 44.5371 11.9825 44.5371 11.9825C44.5372 11.9826 44.5372 11.9826 44.5373 11.9827C44.5373 11.9827 44.5374 11.9828 44.5374 11.9828C44.5375 11.9829 44.5375 11.9829 44.5376 11.983C44.5376 11.983 44.5377 11.9831 44.5377 11.9831C44.5378 11.9832 44.5378 11.9832 44.5379 11.9833C44.5379 11.9833 44.538 11.9834 44.538 11.9834C44.5381 11.9835 44.5381 11.9835 44.5382 11.9836C44.5382 11.9836 44.5383 11.9837 44.5383 11.9837C44.5384 11.9838 44.5384 11.9838 44.5385 11.9839C44.5385 11.9839 44.5386 11.984 44.5386 11.984C44.5387 11.9841 44.5387 11.9841 44.5388 11.9842C44.5388 11.9842 44.5389 11.9843 44.5389 11.9843C44.539 11.9844 44.539 11.9844 44.5391 11.9845C44.5391 11.9845 44.5392 11.9846 44.5392 11.9846C44.5393 11.9847 44.5393 11.9847 44.5394 11.9848C44.5395 11.9848 44.5395 11.9849 44.5396 11.9849C44.5396 11.985 44.5397 11.985 44.5397 11.9851C44.5398 11.9852 44.5398 11.9852 44.5399 11.9853C44.5399 11.9853 44.54 11.9854 44.54 11.9854C44.5401 11.9855 44.5401 11.9855 44.5402 11.9856C44.5402 11.9856 44.5403 11.9857 44.5403 11.9857C44.5404 11.9858 44.5404 11.9858 44.5405 11.9859C44.5405 11.9859 44.5406 11.986 44.5406 11.986C44.5407 11.9861 44.5407 11.9861 44.5408 11.9862C44.5408 11.9862 44.5409 11.9863 44.5409 11.9863C44.541 11.9864 44.5411 11.9864 44.5411 11.9865C44.5412 11.9866 44.5412 11.9866 44.5413 11.9867C44.5413 11.9867 44.5414 11.9868 44.5414 11.9868C44.5415 11.9869 44.5415 11.9869 44.5416 11.987C44.5416 11.987 44.5417 11.9871 44.5417 11.9871C44.5418 11.9872 44.5418 11.9872 44.5419 11.9873C44.5419 11.9873 44.542 11.9874 44.5421 11.9874C44.5421 11.9875 44.5422 11.9876 44.5422 11.9876C44.5423 11.9877 44.5423 11.9877 44.5424 11.9878C44.5424 11.9878 44.5425 11.9879 44.5425 11.9879C44.5426 11.988 44.5426 11.988 44.5427 11.9881C44.5427 11.9881 44.5428 11.9882 44.5429 11.9882C44.5429 11.9883 44.543 11.9884 44.543 11.9884C44.5431 11.9885 44.5431 11.9885 44.5432 11.9886C44.5432 11.9886 44.5433 11.9887 44.5433 11.9887C44.5434 11.9888 44.5434 11.9888 44.5435 11.9889C44.5436 11.989 44.5436 11.989 44.5437 11.9891C44.5437 11.9891 44.5438 11.9892 44.5438 11.9892C44.5439 11.9893 44.5439 11.9893 44.544 11.9894C44.544 11.9894 44.5441 11.9895 44.5442 11.9896C44.5442 11.9896 44.5443 11.9897 44.5443 11.9897C44.5444 11.9898 44.5444 11.9898 44.5445 11.9899C44.5445 11.9899 44.5446 11.99 44.5447 11.99C44.5447 11.9901 44.5448 11.9902 44.5448 11.9902C44.5449 11.9903 44.5449 11.9903 44.545 11.9904C44.545 11.9904 44.5451 11.9905 44.5451 11.9905C44.5452 11.9906 44.5453 11.9907 44.5453 11.9907C44.5454 11.9908 44.5454 11.9908 44.5455 11.9909C44.5455 11.9909 44.5456 11.991 44.5456 11.991C44.5457 11.9911 44.5458 11.9912 44.5458 11.9912C44.5459 11.9913 44.5459 11.9913 44.546 11.9914C44.546 11.9914 44.5461 11.9915 44.5462 11.9915C44.5462 11.9916 44.5463 11.9917 44.5463 11.9917C44.5464 11.9918 44.5464 11.9918 44.5465 11.9919C44.5465 11.9919 44.5466 11.992 44.5467 11.9921C44.5467 11.9921 44.5468 11.9922 44.5468 11.9922C44.5469 11.9923 44.5469 11.9923 44.547 11.9924C44.5471 11.9925 44.5471 11.9925 44.5472 11.9926C44.5472 11.9926 44.5473 11.9927 44.5473 11.9927C44.5474 11.9928 44.5475 11.9929 44.5475 11.9929C44.5476 11.993 44.5476 11.993 44.5477 11.9931C44.5477 11.9931 44.5478 11.9932 44.5479 11.9933C44.5479 11.9933 44.548 11.9934 44.548 11.9934C44.5481 11.9935 44.5481 11.9935 44.5482 11.9936C44.5483 11.9937 44.5483 11.9937 44.5484 11.9938C44.5484 11.9938 44.5485 11.9939 44.5486 11.9939C44.5486 11.994 44.5487 11.9941 44.5487 11.9941C44.5488 11.9942 44.5488 11.9942 44.5489 11.9943C44.549 11.9944 44.549 11.9944 44.5491 11.9945C44.5491 11.9945 44.5492 11.9946 44.5493 11.9946C44.5493 11.9947 44.5494 11.9948 44.5494 11.9948C44.5495 11.9949 44.5495 11.9949 44.5496 11.995C44.5497 11.9951 44.5497 11.9951 44.5498 11.9952C44.5498 11.9952 44.5499 11.9953 44.55 11.9954C44.55 11.9954 44.5501 11.9955 44.5501 11.9955C44.5502 11.9956 44.5503 11.9956 44.5503 11.9957C44.5504 11.9958 44.5504 11.9958 44.5505 11.9959C44.5506 11.9959 44.5506 11.996 44.5507 11.9961C44.5507 11.9961 44.5508 11.9962 44.5508 11.9962C44.5509 11.9963 44.551 11.9964 44.551 11.9964C44.5511 11.9965 44.5511 11.9965 44.5512 11.9966C44.5513 11.9967 44.5513 11.9967 44.5514 11.9968C44.5514 11.9968 44.5515 11.9969 44.5516 11.997C44.5516 11.997 44.5517 11.9971 44.5517 11.9971C44.5518 11.9972 44.5519 11.9973 44.5519 11.9973C44.552 11.9974 44.552 11.9974 44.5521 11.9975C44.5522 11.9976 44.5522 11.9976 44.5523 11.9977C44.5524 11.9977 44.5524 11.9978 44.5525 11.9979C44.5525 11.9979 44.5526 11.998 44.5527 11.9981C44.5527 11.9981 44.5528 11.9982 44.5528 11.9982C44.5529 11.9983 44.553 11.9984 44.553 11.9984C44.5531 11.9985 44.5531 11.9985 44.5532 11.9986C44.5533 11.9987 44.5533 11.9987 44.5534 11.9988C44.5535 11.9988 44.5535 11.9989 44.5536 11.999C44.5536 11.999 44.5537 11.9991 44.5538 11.9992C44.5538 11.9992 44.5539 11.9993 44.5539 11.9993C44.554 11.9994 44.5541 11.9995 44.5541 11.9995C44.5542 11.9996 44.5543 11.9996 44.5543 11.9997C44.5544 11.9998 44.5544 11.9998 44.5545 11.9999C44.5546 12 44.5546 12 44.5547 12.0001C44.5548 12.0001 44.5548 12.0002 44.5549 12.0003C44.5549 12.0003 44.555 12.0004 44.5551 12.0005C44.5551 12.0005 44.5552 12.0006 44.5553 12.0006C44.5553 12.0007 44.5554 12.0008 44.5554 12.0008C44.5555 12.0009 44.5556 12.001 44.5556 12.001C44.5557 12.0011 44.5558 12.0011 44.5558 12.0012C44.5559 12.0013 44.5559 12.0013 44.556 12.0014C44.5561 12.0015 44.5561 12.0015 44.5562 12.0016C44.5563 12.0017 44.5563 12.0017 44.5564 12.0018C44.5565 12.0018 44.5565 12.0019 44.5566 12.002C44.5566 12.002 44.5567 12.0021 44.5568 12.0022C44.5568 12.0022 44.5569 12.0023 44.557 12.0024C44.557 12.0024 44.5571 12.0025 44.5572 12.0025C44.5572 12.0026 44.5573 12.0027 44.5573 12.0027C44.5574 12.0028 44.5575 12.0029 44.5575 12.0029C44.5576 12.003 44.5577 12.0031 44.5577 12.0031C44.5578 12.0032 44.5579 12.0033 44.5579 12.0033C44.558 12.0034 44.558 12.0034 44.5581 12.0035C44.5582 12.0036 44.5582 12.0036 44.5583 12.0037C44.5584 12.0038 44.5584 12.0038 44.5585 12.0039C44.5586 12.004 44.5586 12.004 44.5587 12.0041C44.5588 12.0042 44.5588 12.0042 44.5589 12.0043C44.559 12.0044 44.559 12.0044 44.5591 12.0045C44.5592 12.0045 44.5592 12.0046 44.5593 12.0047C44.5593 12.0047 44.5594 12.0048 44.5595 12.0049C44.5595 12.0049 44.5596 12.005 44.5597 12.0051C44.5597 12.0051 44.5598 12.0052 44.5599 12.0053C44.5599 12.0053 44.56 12.0054 44.5601 12.0055C44.5601 12.0055 44.5602 12.0056 44.5603 12.0057C44.5603 12.0057 44.5604 12.0058 44.5605 12.0059C44.5605 12.0059 44.5606 12.006 44.5607 12.0061C44.5607 12.0061 44.5608 12.0062 44.5609 12.0063C44.5609 12.0063 44.561 12.0064 44.5611 12.0065C44.5611 12.0065 44.5612 12.0066 44.5613 12.0067C44.5613 12.0067 44.5614 12.0068 44.5615 12.0069C44.5615 12.0069 44.5616 12.007 44.5617 12.0071C44.5617 12.0071 44.5618 12.0072 44.5619 12.0073C44.5619 12.0073 44.562 12.0074 44.5621 12.0075C44.5621 12.0075 44.5622 12.0076 44.5623 12.0077C44.5623 12.0077 44.5624 12.0078 44.5625 12.0079C44.5625 12.0079 44.5626 12.008 44.5627 12.0081C44.5627 12.0081 44.5628 12.0082 44.5629 12.0083C44.5629 12.0083 44.563 12.0084 44.5631 12.0085C44.5631 12.0085 44.5632 12.0086 44.5633 12.0087C44.5633 12.0087 44.5634 12.0088 44.5635 12.0089C44.5635 12.0089 44.5636 12.009 44.5637 12.0091C44.5638 12.0091 44.5638 12.0092 44.5639 12.0093C44.564 12.0094 44.564 12.0094 44.5641 12.0095C44.5642 12.0096 44.5642 12.0096 44.5643 12.0097C44.5644 12.0098 44.5644 12.0098 44.5645 12.0099C44.5646 12.01 44.5646 12.01 44.5647 12.0101C44.5648 12.0102 44.5648 12.0102 44.5649 12.0103C44.565 12.0104 44.5651 12.0105 44.5651 12.0105C44.5652 12.0106 44.5653 12.0107 44.5653 12.0107C44.5654 12.0108 44.5655 12.0109 44.5655 12.0109C44.5656 12.011 44.5657 12.0111 44.5657 12.0111C44.5658 12.0112 44.5659 12.0113 44.566 12.0113C44.566 12.0114 44.5661 12.0115 44.5662 12.0116C44.5662 12.0116 44.5663 12.0117 44.5664 12.0118C44.5664 12.0118 44.5665 12.0119 44.5666 12.012C44.5667 12.012 44.5667 12.0121 44.5668 12.0122C44.5669 12.0123 44.5669 12.0123 44.567 12.0124C44.5671 12.0125 44.5671 12.0125 44.5672 12.0126C44.5673 12.0127 44.5674 12.0127 44.5674 12.0128C44.5675 12.0129 44.5676 12.013 44.5676 12.013C44.5677 12.0131 44.5678 12.0132 44.5678 12.0132C44.5679 12.0133 44.568 12.0134 44.5681 12.0135C44.5681 12.0135 44.5682 12.0136 44.5683 12.0137C44.5683 12.0137 44.5684 12.0138 44.5685 12.0139C44.5686 12.0139 44.5686 12.014 44.5687 12.0141C44.5688 12.0142 44.5688 12.0142 44.5689 12.0143C44.569 12.0144 44.5691 12.0144 44.5691 12.0145C44.5692 12.0146 44.5693 12.0147 44.5693 12.0147C44.5694 12.0148 44.5695 12.0149 44.5696 12.0149C44.5696 12.015 44.5697 12.0151 44.5698 12.0152C44.5698 12.0152 44.5699 12.0153 44.57 12.0154C44.5701 12.0154 44.5701 12.0155 44.5702 12.0156C44.5703 12.0157 44.5703 12.0157 44.5704 12.0158C44.5705 12.0159 44.5706 12.016 44.5706 12.016C44.5707 12.0161 44.5708 12.0162 44.5708 12.0162C44.5709 12.0163 44.571 12.0164 44.5711 12.0165C44.5711 12.0165 44.5712 12.0166 44.5713 12.0167C44.5714 12.0168 44.5714 12.0168 44.5715 12.0169C44.5716 12.017 44.5716 12.017 44.5717 12.0171C44.5718 12.0172 44.5719 12.0173 44.5719 12.0173C44.572 12.0174 44.5721 12.0175 44.5722 12.0176C44.5722 12.0176 44.5723 12.0177 44.5724 12.0178C44.5725 12.0178 44.5725 12.0179 44.5726 12.018C44.5727 12.0181 44.5727 12.0181 44.5728 12.0182C44.5729 12.0183 44.573 12.0184 44.573 12.0184C44.5731 12.0185 44.5732 12.0186 44.5733 12.0187C44.5733 12.0187 44.5734 12.0188 44.5735 12.0189C44.5736 12.0189 44.5736 12.019 44.5737 12.0191C44.5738 12.0192 44.5739 12.0192 44.5739 12.0193C44.574 12.0194 44.5741 12.0195 44.5741 12.0195C44.5742 12.0196 44.5743 12.0197 44.5744 12.0198C44.5744 12.0198 44.5745 12.0199 44.5746 12.02C44.5747 12.0201 44.5747 12.0201 44.5748 12.0202C44.5749 12.0203 44.575 12.0204 44.575 12.0204C44.5751 12.0205 44.5752 12.0206 44.5753 12.0207C44.5753 12.0207 44.5754 12.0208 44.5755 12.0209C44.5756 12.021 44.5756 12.021 44.5757 12.0211C44.5758 12.0212 44.5759 12.0213 44.5759 12.0213C44.576 12.0214 44.5761 12.0215 44.5762 12.0216C44.5762 12.0216 44.5763 12.0217 44.5764 12.0218C44.5765 12.0219 44.5765 12.0219 44.5766 12.022C44.5767 12.0221 44.5768 12.0222 44.5768 12.0222C44.5769 12.0223 44.577 12.0224 44.5771 12.0225C44.5772 12.0225 44.5772 12.0226 44.5773 12.0227C44.5774 12.0228 44.5775 12.0228 44.5775 12.0229C44.5776 12.023 44.5777 12.0231 44.5778 12.0232C44.5778 12.0232 44.5779 12.0233 44.578 12.0234C44.5781 12.0235 44.5781 12.0235 44.5782 12.0236C44.5783 12.0237 44.5784 12.0238 44.5784 12.0238C44.5785 12.0239 44.5786 12.024 44.5787 12.0241C44.5788 12.0241 44.5788 12.0242 44.5789 12.0243C44.579 12.0244 44.5791 12.0245 44.5791 12.0245C44.5792 12.0246 44.5793 12.0247 44.5794 12.0248C44.5794 12.0248 44.5795 12.0249 44.5796 12.025C44.5797 12.0251 44.5798 12.0252 44.5798 12.0252C44.5799 12.0253 44.58 12.0254 44.5801 12.0255C44.5801 12.0255 44.5802 12.0256 44.5803 12.0257C44.5804 12.0258 44.5805 12.0258 44.5805 12.0259C44.5806 12.026 44.5807 12.0261 44.5808 12.0262C44.5808 12.0262 44.5809 12.0263 44.581 12.0264C44.5811 12.0265 44.5812 12.0266 44.5812 12.0266C44.5813 12.0267 44.5814 12.0268 44.5815 12.0269C44.5815 12.0269 44.5816 12.027 44.5817 12.0271C44.5818 12.0272 44.5819 12.0273 44.5819 12.0273C44.582 12.0274 44.5821 12.0275 44.5822 12.0276C44.5823 12.0276 44.5823 12.0277 44.5824 12.0278C44.5825 12.0279 44.5826 12.028 44.5826 12.028C44.5827 12.0281 44.5828 12.0282 44.5829 12.0283C44.583 12.0284 44.583 12.0284 44.5831 12.0285C44.5832 12.0286 44.5833 12.0287 44.5834 12.0288C44.5834 12.0288 44.5835 12.0289 44.5836 12.029C44.5837 12.0291 44.5838 12.0292 44.5838 12.0292C44.5839 12.0293 44.584 12.0294 44.5841 12.0295C44.5842 12.0295 44.5842 12.0296 44.5843 12.0297C44.5844 12.0298 44.5845 12.0299 44.5846 12.0299C44.5846 12.03 44.5847 12.0301 44.5848 12.0302C44.5849 12.0303 44.585 12.0303 44.585 12.0304C44.5851 12.0305 44.5852 12.0306 44.5853 12.0307C44.5854 12.0307 44.5854 12.0308 44.5855 12.0309C44.5856 12.031 44.5857 12.0311 44.5858 12.0312L44.9745 11.6424C44.9745 11.6423 44.9744 11.6422 44.9743 11.6421C44.9742 11.642 44.9741 11.642 44.9741 11.6419C44.974 11.6418 44.9739 11.6417 44.9738 11.6416C44.9737 11.6416 44.9737 11.6415 44.9736 11.6414C44.9735 11.6413 44.9734 11.6412 44.9733 11.6412C44.9733 11.6411 44.9732 11.641 44.9731 11.6409C44.973 11.6408 44.9729 11.6408 44.9729 11.6407C44.9728 11.6406 44.9727 11.6405 44.9726 11.6405C44.9725 11.6404 44.9725 11.6403 44.9724 11.6402C44.9723 11.6401 44.9722 11.6401 44.9721 11.64C44.9721 11.6399 44.972 11.6398 44.9719 11.6397C44.9718 11.6397 44.9717 11.6396 44.9717 11.6395C44.9716 11.6394 44.9715 11.6393 44.9714 11.6393C44.9713 11.6392 44.9713 11.6391 44.9712 11.639C44.9711 11.6389 44.971 11.6389 44.971 11.6388C44.9709 11.6387 44.9708 11.6386 44.9707 11.6386C44.9706 11.6385 44.9706 11.6384 44.9705 11.6383C44.9704 11.6382 44.9703 11.6382 44.9702 11.6381C44.9702 11.638 44.9701 11.6379 44.97 11.6378C44.9699 11.6378 44.9699 11.6377 44.9698 11.6376C44.9697 11.6375 44.9696 11.6375 44.9695 11.6374C44.9695 11.6373 44.9694 11.6372 44.9693 11.6371C44.9692 11.6371 44.9692 11.637 44.9691 11.6369C44.969 11.6368 44.9689 11.6368 44.9688 11.6367C44.9688 11.6366 44.9687 11.6365 44.9686 11.6364C44.9685 11.6364 44.9685 11.6363 44.9684 11.6362C44.9683 11.6361 44.9682 11.6361 44.9681 11.636C44.9681 11.6359 44.968 11.6358 44.9679 11.6358C44.9678 11.6357 44.9678 11.6356 44.9677 11.6355C44.9676 11.6354 44.9675 11.6354 44.9675 11.6353C44.9674 11.6352 44.9673 11.6351 44.9672 11.6351C44.9672 11.635 44.9671 11.6349 44.967 11.6348C44.9669 11.6348 44.9668 11.6347 44.9668 11.6346C44.9667 11.6345 44.9666 11.6345 44.9665 11.6344C44.9665 11.6343 44.9664 11.6342 44.9663 11.6341C44.9662 11.6341 44.9662 11.634 44.9661 11.6339C44.966 11.6338 44.9659 11.6338 44.9659 11.6337C44.9658 11.6336 44.9657 11.6335 44.9656 11.6335C44.9656 11.6334 44.9655 11.6333 44.9654 11.6332C44.9653 11.6332 44.9652 11.6331 44.9652 11.633C44.9651 11.6329 44.965 11.6329 44.9649 11.6328C44.9649 11.6327 44.9648 11.6326 44.9647 11.6326C44.9646 11.6325 44.9646 11.6324 44.9645 11.6323C44.9644 11.6323 44.9643 11.6322 44.9643 11.6321C44.9642 11.632 44.9641 11.632 44.964 11.6319C44.964 11.6318 44.9639 11.6317 44.9638 11.6317C44.9637 11.6316 44.9637 11.6315 44.9636 11.6314C44.9635 11.6314 44.9634 11.6313 44.9634 11.6312C44.9633 11.6311 44.9632 11.6311 44.9631 11.631C44.9631 11.6309 44.963 11.6308 44.9629 11.6308C44.9629 11.6307 44.9628 11.6306 44.9627 11.6305C44.9626 11.6305 44.9626 11.6304 44.9625 11.6303C44.9624 11.6302 44.9623 11.6302 44.9623 11.6301C44.9622 11.63 44.9621 11.6299 44.962 11.6299C44.962 11.6298 44.9619 11.6297 44.9618 11.6297C44.9617 11.6296 44.9617 11.6295 44.9616 11.6294C44.9615 11.6294 44.9615 11.6293 44.9614 11.6292C44.9613 11.6291 44.9612 11.6291 44.9612 11.629C44.9611 11.6289 44.961 11.6288 44.9609 11.6288C44.9609 11.6287 44.9608 11.6286 44.9607 11.6286C44.9606 11.6285 44.9606 11.6284 44.9605 11.6283C44.9604 11.6283 44.9604 11.6282 44.9603 11.6281C44.9602 11.628 44.9601 11.628 44.9601 11.6279C44.96 11.6278 44.9599 11.6278 44.9598 11.6277C44.9598 11.6276 44.9597 11.6275 44.9596 11.6275C44.9596 11.6274 44.9595 11.6273 44.9594 11.6272C44.9593 11.6272 44.9593 11.6271 44.9592 11.627C44.9591 11.627 44.9591 11.6269 44.959 11.6268C44.9589 11.6267 44.9588 11.6267 44.9588 11.6266C44.9587 11.6265 44.9586 11.6265 44.9585 11.6264C44.9585 11.6263 44.9584 11.6262 44.9583 11.6262C44.9583 11.6261 44.9582 11.626 44.9581 11.626C44.958 11.6259 44.958 11.6258 44.9579 11.6257C44.9578 11.6257 44.9578 11.6256 44.9577 11.6255C44.9576 11.6255 44.9575 11.6254 44.9575 11.6253C44.9574 11.6252 44.9573 11.6252 44.9573 11.6251C44.9572 11.625 44.9571 11.625 44.9571 11.6249C44.957 11.6248 44.9569 11.6247 44.9568 11.6247C44.9568 11.6246 44.9567 11.6245 44.9566 11.6245C44.9566 11.6244 44.9565 11.6243 44.9564 11.6242C44.9563 11.6242 44.9563 11.6241 44.9562 11.624C44.9561 11.624 44.9561 11.6239 44.956 11.6238C44.9559 11.6238 44.9559 11.6237 44.9558 11.6236C44.9557 11.6235 44.9556 11.6235 44.9556 11.6234C44.9555 11.6233 44.9554 11.6233 44.9554 11.6232C44.9553 11.6231 44.9552 11.6231 44.9552 11.623C44.9551 11.6229 44.955 11.6228 44.9549 11.6228C44.9549 11.6227 44.9548 11.6226 44.9547 11.6226C44.9547 11.6225 44.9546 11.6224 44.9545 11.6224C44.9545 11.6223 44.9544 11.6222 44.9543 11.6222C44.9542 11.6221 44.9542 11.622 44.9541 11.6219C44.954 11.6219 44.954 11.6218 44.9539 11.6217C44.9538 11.6217 44.9538 11.6216 44.9537 11.6215C44.9536 11.6215 44.9536 11.6214 44.9535 11.6213C44.9534 11.6213 44.9534 11.6212 44.9533 11.6211C44.9532 11.6211 44.9531 11.621 44.9531 11.6209C44.953 11.6208 44.9529 11.6208 44.9529 11.6207C44.9528 11.6206 44.9527 11.6206 44.9527 11.6205C44.9526 11.6204 44.9525 11.6204 44.9525 11.6203C44.9524 11.6202 44.9523 11.6202 44.9523 11.6201C44.9522 11.62 44.9521 11.62 44.9521 11.6199C44.952 11.6198 44.9519 11.6198 44.9519 11.6197C44.9518 11.6196 44.9517 11.6196 44.9517 11.6195C44.9516 11.6194 44.9515 11.6194 44.9514 11.6193C44.9514 11.6192 44.9513 11.6191 44.9512 11.6191C44.9512 11.619 44.9511 11.6189 44.951 11.6189C44.951 11.6188 44.9509 11.6187 44.9508 11.6187C44.9508 11.6186 44.9507 11.6185 44.9506 11.6185C44.9506 11.6184 44.9505 11.6183 44.9504 11.6183C44.9504 11.6182 44.9503 11.6181 44.9502 11.6181C44.9502 11.618 44.9501 11.6179 44.95 11.6179C44.95 11.6178 44.9499 11.6177 44.9498 11.6177C44.9498 11.6176 44.9497 11.6175 44.9496 11.6175C44.9496 11.6174 44.9495 11.6173 44.9494 11.6173C44.9494 11.6172 44.9493 11.6171 44.9492 11.6171C44.9492 11.617 44.9491 11.6169 44.949 11.6169C44.949 11.6168 44.9489 11.6168 44.9488 11.6167C44.9488 11.6166 44.9487 11.6166 44.9487 11.6165C44.9486 11.6164 44.9485 11.6164 44.9485 11.6163C44.9484 11.6162 44.9483 11.6162 44.9483 11.6161C44.9482 11.616 44.9481 11.616 44.9481 11.6159C44.948 11.6158 44.9479 11.6158 44.9479 11.6157C44.9478 11.6156 44.9477 11.6156 44.9477 11.6155C44.9476 11.6154 44.9475 11.6154 44.9475 11.6153C44.9474 11.6152 44.9473 11.6152 44.9473 11.6151C44.9472 11.6151 44.9472 11.615 44.9471 11.6149C44.947 11.6149 44.947 11.6148 44.9469 11.6147C44.9468 11.6147 44.9468 11.6146 44.9467 11.6145C44.9466 11.6145 44.9466 11.6144 44.9465 11.6143C44.9464 11.6143 44.9464 11.6142 44.9463 11.6142C44.9463 11.6141 44.9462 11.614 44.9461 11.614C44.9461 11.6139 44.946 11.6138 44.9459 11.6138C44.9459 11.6137 44.9458 11.6136 44.9457 11.6136C44.9457 11.6135 44.9456 11.6134 44.9455 11.6134C44.9455 11.6133 44.9454 11.6133 44.9454 11.6132C44.9453 11.6131 44.9452 11.6131 44.9452 11.613C44.9451 11.6129 44.945 11.6129 44.945 11.6128C44.9449 11.6127 44.9448 11.6127 44.9448 11.6126C44.9447 11.6126 44.9447 11.6125 44.9446 11.6124C44.9445 11.6124 44.9445 11.6123 44.9444 11.6122C44.9443 11.6122 44.9443 11.6121 44.9442 11.6121C44.9442 11.612 44.9441 11.6119 44.944 11.6119C44.944 11.6118 44.9439 11.6117 44.9438 11.6117C44.9438 11.6116 44.9437 11.6116 44.9437 11.6115C44.9436 11.6114 44.9435 11.6114 44.9435 11.6113C44.9434 11.6112 44.9433 11.6112 44.9433 11.6111C44.9432 11.6111 44.9432 11.611 44.9431 11.6109C44.943 11.6109 44.943 11.6108 44.9429 11.6107C44.9428 11.6107 44.9428 11.6106 44.9427 11.6106C44.9427 11.6105 44.9426 11.6104 44.9425 11.6104C44.9425 11.6103 44.9424 11.6103 44.9424 11.6102C44.9423 11.6101 44.9422 11.6101 44.9422 11.61C44.9421 11.6099 44.942 11.6099 44.942 11.6098C44.9419 11.6098 44.9419 11.6097 44.9418 11.6096C44.9417 11.6096 44.9417 11.6095 44.9416 11.6095C44.9416 11.6094 44.9415 11.6093 44.9414 11.6093C44.9414 11.6092 44.9413 11.6091 44.9413 11.6091C44.9412 11.609 44.9411 11.609 44.9411 11.6089C44.941 11.6088 44.941 11.6088 44.9409 11.6087C44.9408 11.6087 44.9408 11.6086 44.9407 11.6085C44.9406 11.6085 44.9406 11.6084 44.9405 11.6084C44.9405 11.6083 44.9404 11.6082 44.9403 11.6082C44.9403 11.6081 44.9402 11.6081 44.9402 11.608C44.9401 11.6079 44.94 11.6079 44.94 11.6078C44.9399 11.6078 44.9399 11.6077 44.9398 11.6076C44.9397 11.6076 44.9397 11.6075 44.9396 11.6075C44.9396 11.6074 44.9395 11.6073 44.9394 11.6073C44.9394 11.6072 44.9393 11.6072 44.9393 11.6071C44.9392 11.607 44.9392 11.607 44.9391 11.6069C44.939 11.6069 44.939 11.6068 44.9389 11.6068C44.9389 11.6067 44.9388 11.6066 44.9387 11.6066C44.9387 11.6065 44.9386 11.6065 44.9386 11.6064C44.9385 11.6063 44.9384 11.6063 44.9384 11.6062C44.9383 11.6062 44.9383 11.6061 44.9382 11.606C44.9381 11.606 44.9381 11.6059 44.938 11.6059C44.938 11.6058 44.9379 11.6058 44.9379 11.6057C44.9378 11.6056 44.9377 11.6056 44.9377 11.6055C44.9376 11.6055 44.9376 11.6054 44.9375 11.6053C44.9374 11.6053 44.9374 11.6052 44.9373 11.6052C44.9373 11.6051 44.9372 11.6051 44.9372 11.605C44.9371 11.6049 44.937 11.6049 44.937 11.6048C44.9369 11.6048 44.9369 11.6047 44.9368 11.6046C44.9368 11.6046 44.9367 11.6045 44.9366 11.6045C44.9366 11.6044 44.9365 11.6044 44.9365 11.6043C44.9364 11.6042 44.9364 11.6042 44.9363 11.6041C44.9362 11.6041 44.9362 11.604 44.9361 11.604C44.9361 11.6039 44.936 11.6038 44.936 11.6038C44.9359 11.6037 44.9358 11.6037 44.9358 11.6036C44.9357 11.6036 44.9357 11.6035 44.9356 11.6034C44.9356 11.6034 44.9355 11.6033 44.9354 11.6033C44.9354 11.6032 44.9353 11.6032 44.9353 11.6031C44.9352 11.6031 44.9352 11.603 44.9351 11.6029C44.935 11.6029 44.935 11.6028 44.9349 11.6028C44.9349 11.6027 44.9348 11.6027 44.9348 11.6026C44.9347 11.6025 44.9347 11.6025 44.9346 11.6024C44.9345 11.6024 44.9345 11.6023 44.9344 11.6023C44.9344 11.6022 44.9343 11.6022 44.9343 11.6021C44.9342 11.602 44.9342 11.602 44.9341 11.6019C44.934 11.6019 44.934 11.6018 44.9339 11.6018C44.9339 11.6017 44.9338 11.6017 44.9338 11.6016C44.9337 11.6015 44.9337 11.6015 44.9336 11.6014C44.9335 11.6014 44.9335 11.6013 44.9334 11.6013C44.9334 11.6012 44.9333 11.6012 44.9333 11.6011C44.9332 11.601 44.9332 11.601 44.9331 11.6009C44.933 11.6009 44.933 11.6008 44.9329 11.6008C44.9329 11.6007 44.9328 11.6007 44.9328 11.6006C44.9327 11.6006 44.9327 11.6005 44.9326 11.6004C44.9326 11.6004 44.9325 11.6003 44.9324 11.6003C44.9324 11.6002 44.9323 11.6002 44.9323 11.6001C44.9322 11.6001 44.9322 11.6 44.9321 11.6C44.9321 11.5999 44.932 11.5998 44.932 11.5998C44.9319 11.5997 44.9318 11.5997 44.9318 11.5996C44.9317 11.5996 44.9317 11.5995 44.9316 11.5995C44.9316 11.5994 44.9315 11.5994 44.9315 11.5993C44.9314 11.5993 44.9314 11.5992 44.9313 11.5991C44.9313 11.5991 44.9312 11.599 44.9312 11.599C44.9311 11.5989 44.931 11.5989 44.931 11.5988C44.9309 11.5988 44.9309 11.5987 44.9308 11.5987C44.9308 11.5986 44.9307 11.5986 44.9307 11.5985C44.9306 11.5985 44.9306 11.5984 44.9305 11.5984C44.9305 11.5983 44.9304 11.5982 44.9304 11.5982C44.9303 11.5981 44.9303 11.5981 44.9302 11.598C44.9301 11.598 44.9301 11.5979 44.93 11.5979C44.93 11.5978 44.9299 11.5978 44.9299 11.5977C44.9298 11.5977 44.9298 11.5976 44.9297 11.5976C44.9297 11.5975 44.9296 11.5975 44.9296 11.5974C44.9295 11.5974 44.9295 11.5973 44.9294 11.5972C44.9294 11.5972 44.9293 11.5971 44.9293 11.5971C44.9292 11.597 44.9292 11.597 44.9291 11.5969C44.9291 11.5969 44.929 11.5968 44.9289 11.5968C44.9289 11.5967 44.9288 11.5967 44.9288 11.5966C44.9287 11.5966 44.9287 11.5965 44.9286 11.5965C44.9286 11.5964 44.9285 11.5964 44.9285 11.5963C44.9284 11.5963 44.9284 11.5962 44.9283 11.5962C44.9283 11.5961 44.9282 11.5961 44.9282 11.596C44.9281 11.596 44.9281 11.5959 44.928 11.5959C44.928 11.5958 44.9279 11.5958 44.9279 11.5957C44.9278 11.5957 44.9278 11.5956 44.9277 11.5956C44.9277 11.5955 44.9276 11.5955 44.9276 11.5954C44.9275 11.5954 44.9275 11.5953 44.9274 11.5953C44.9274 11.5952 44.9273 11.5952 44.9273 11.5951C44.9272 11.5951 44.9272 11.595 44.9271 11.595C44.9271 11.5949 44.927 11.5949 44.927 11.5948C44.9269 11.5948 44.9269 11.5947 44.9268 11.5947C44.9268 11.5946 44.9267 11.5946 44.9267 11.5945C44.9266 11.5945 44.9266 11.5944 44.9265 11.5944C44.9265 11.5943 44.9264 11.5943 44.9264 11.5942C44.9263 11.5942 44.9263 11.5941 44.9262 11.5941C44.9262 11.594 44.9261 11.594 44.9261 11.5939C44.926 11.5939 44.926 11.5938 44.9259 11.5938C44.9259 11.5937 44.9258 11.5937 44.9258 11.5936C44.9257 11.5936 44.9257 11.5935 44.9256 11.5935C44.9256 11.5934 44.9255 11.5934 44.9255 11.5933C44.9254 11.5933 44.9254 11.5932 44.9253 11.5932C44.9253 11.5931 44.9252 11.5931 44.9252 11.593C44.9251 11.593 44.9251 11.5929 44.9251 11.5929C44.925 11.5928 44.925 11.5928 44.9249 11.5927C44.9249 11.5927 44.9248 11.5926 44.9248 11.5926C44.9247 11.5925 44.9247 11.5925 44.9246 11.5925C44.9246 11.5924 44.9245 11.5924 44.9245 11.5923C44.9244 11.5923 44.9244 11.5922 44.9243 11.5922C44.9243 11.5921 44.9242 11.5921 44.9242 11.592C44.9241 11.592 44.9241 11.5919 44.924 11.5919C44.924 11.5918 44.924 11.5918 44.9239 11.5917C44.9239 11.5917 44.9238 11.5916 44.9238 11.5916C44.9237 11.5915 44.9237 11.5915 44.9236 11.5915C44.9236 11.5914 44.9235 11.5914 44.9235 11.5913C44.9234 11.5913 44.9234 11.5912 44.9233 11.5912C44.9233 11.5911 44.9232 11.5911 44.9232 11.591C44.9232 11.591 44.9231 11.5909 44.9231 11.5909C44.923 11.5908 44.923 11.5908 44.9229 11.5908C44.9229 11.5907 44.9228 11.5907 44.9228 11.5906C44.9227 11.5906 44.9227 11.5905 44.9226 11.5905C44.9226 11.5904 44.9225 11.5904 44.9225 11.5903C44.9225 11.5903 44.9224 11.5902 44.9224 11.5902C44.9223 11.5902 44.9223 11.5901 44.9222 11.5901C44.9222 11.59 44.9221 11.59 44.9221 11.5899C44.922 11.5899 44.922 11.5898 44.922 11.5898C44.9219 11.5897 44.9219 11.5897 44.9218 11.5897C44.9218 11.5896 44.9217 11.5896 44.9217 11.5895C44.9216 11.5895 44.9216 11.5894 44.9215 11.5894C44.9215 11.5893 44.9215 11.5893 44.9214 11.5892C44.9214 11.5892 44.9213 11.5892 44.9213 11.5891C44.9212 11.5891 44.9212 11.589 44.9211 11.589C44.9211 11.5889 44.9211 11.5889 44.921 11.5888C44.921 11.5888 44.9209 11.5888 44.9209 11.5887C44.9208 11.5887 44.9208 11.5886 44.9207 11.5886C44.9207 11.5885 44.9206 11.5885 44.9206 11.5884C44.9206 11.5884 44.9205 11.5884 44.9205 11.5883C44.9204 11.5883 44.9204 11.5882 44.9203 11.5882C44.9203 11.5881 44.9203 11.5881 44.9202 11.588C44.9202 11.588 44.9201 11.588 44.9201 11.5879C44.92 11.5879 44.92 11.5878 44.9199 11.5878C44.9199 11.5877 44.9199 11.5877 44.9198 11.5877C44.9198 11.5876 44.9197 11.5876 44.9197 11.5875C44.9196 11.5875 44.9196 11.5874 44.9196 11.5874C44.9195 11.5873 44.9195 11.5873 44.9194 11.5873C44.9194 11.5872 44.9193 11.5872 44.9193 11.5871C44.9193 11.5871 44.9192 11.587 44.9192 11.587C44.9191 11.587 44.9191 11.5869 44.919 11.5869C44.919 11.5868 44.919 11.5868 44.9189 11.5867C44.9189 11.5867 44.9188 11.5867 44.9188 11.5866C44.9187 11.5866 44.9187 11.5865 44.9187 11.5865C44.9186 11.5864 44.9186 11.5864 44.9185 11.5864C44.9185 11.5863 44.9184 11.5863 44.9184 11.5862C44.9184 11.5862 44.9183 11.5862 44.9183 11.5861C44.9182 11.5861 44.9182 11.586 44.9181 11.586C44.9181 11.5859 44.9181 11.5859 44.918 11.5859C44.918 11.5858 44.9179 11.5858 44.9179 11.5857C44.9179 11.5857 44.9178 11.5856 44.9178 11.5856C44.9177 11.5856 44.9177 11.5855 44.9176 11.5855C44.9176 11.5854 44.9176 11.5854 44.9175 11.5854C44.9175 11.5853 44.9174 11.5853 44.9174 11.5852C44.9174 11.5852 44.9173 11.5852 44.9173 11.5851C44.9172 11.5851 44.9172 11.585 44.9172 11.585C44.9171 11.5849 44.9171 11.5849 44.917 11.5849C44.917 11.5848 44.917 11.5848 44.9169 11.5847C44.9169 11.5847 44.9168 11.5847 44.9168 11.5846C44.9167 11.5846 44.9167 11.5845 44.9167 11.5845C44.9166 11.5845 44.9166 11.5844 44.9165 11.5844C44.9165 11.5843 44.9165 11.5843 44.9164 11.5843C44.9164 11.5842 44.9163 11.5842 44.9163 11.5841C44.9163 11.5841 44.9162 11.5841 44.9162 11.584C44.9161 11.584 44.9161 11.5839 44.9161 11.5839C44.916 11.5839 44.916 11.5838 44.9159 11.5838C44.9159 11.5837 44.9159 11.5837 44.9158 11.5837C44.9158 11.5836 44.9157 11.5836 44.9157 11.5835C44.9157 11.5835 44.9156 11.5835 44.9156 11.5834C44.9156 11.5834 44.9155 11.5833 44.9155 11.5833C44.9154 11.5833 44.9154 11.5832 44.9154 11.5832C44.9153 11.5832 44.9153 11.5831 44.9152 11.5831C44.9152 11.583 44.9152 11.583 44.9151 11.583C44.9151 11.5829 44.915 11.5829 44.915 11.5828C44.915 11.5828 44.9149 11.5828 44.9149 11.5827C44.9149 11.5827 44.9148 11.5827 44.9148 11.5826C44.9147 11.5826 44.9147 11.5825 44.9147 11.5825C44.9146 11.5825 44.9146 11.5824 44.9145 11.5824C44.9145 11.5823 44.9145 11.5823 44.9144 11.5823C44.9144 11.5822 44.9144 11.5822 44.9143 11.5822C44.9143 11.5821 44.9142 11.5821 44.9142 11.582C44.9142 11.582 44.9141 11.582 44.9141 11.5819C44.9141 11.5819 44.914 11.5819 44.914 11.5818C44.9139 11.5818 44.9139 11.5817 44.9139 11.5817C44.9138 11.5817 44.9138 11.5816 44.9138 11.5816C44.9137 11.5816 44.9137 11.5815 44.9136 11.5815C44.9136 11.5814 44.9136 11.5814 44.9135 11.5814C44.9135 11.5813 44.9135 11.5813 44.9134 11.5813C44.9134 11.5812 44.9133 11.5812 44.9133 11.5811C44.9133 11.5811 44.9132 11.5811 44.9132 11.581C44.9132 11.581 44.9131 11.581 44.9131 11.5809C44.9131 11.5809 44.913 11.5809 44.913 11.5808C44.9129 11.5808 44.9129 11.5807 44.9129 11.5807C44.9128 11.5807 44.9128 11.5806 44.9128 11.5806C44.9127 11.5806 44.9127 11.5805 44.9127 11.5805C44.9126 11.5805 44.9126 11.5804 44.9125 11.5804C44.9125 11.5803 44.9125 11.5803 44.9124 11.5803C44.9124 11.5802 44.9124 11.5802 44.9123 11.5802C44.9123 11.5801 44.9123 11.5801 44.9122 11.5801C44.9122 11.58 44.9122 11.58 44.9121 11.58C44.9121 11.5799 44.9121 11.5799 44.912 11.5799C44.912 11.5798 44.9119 11.5798 44.9119 11.5797C44.9119 11.5797 44.9118 11.5797 44.9118 11.5796C44.9118 11.5796 44.9117 11.5796 44.9117 11.5795C44.9117 11.5795 44.9116 11.5795 44.9116 11.5794C44.9116 11.5794 44.9115 11.5794 44.9115 11.5793C44.9115 11.5793 44.9114 11.5793 44.9114 11.5792C44.9114 11.5792 44.9113 11.5792 44.9113 11.5791C44.9113 11.5791 44.9112 11.5791 44.9112 11.579C44.9111 11.579 44.9111 11.5789 44.9111 11.5789C44.911 11.5789 44.911 11.5788 44.911 11.5788C44.9109 11.5788 44.9109 11.5787 44.9109 11.5787C44.9108 11.5787 44.9108 11.5786 44.9108 11.5786C44.9107 11.5786 44.9107 11.5785 44.9107 11.5785C44.9106 11.5785 44.9106 11.5784 44.9106 11.5784C44.9105 11.5784 44.9105 11.5783 44.9105 11.5783C44.9104 11.5783 44.9104 11.5782 44.9104 11.5782C44.9103 11.5782 44.9103 11.5781 44.9103 11.5781C44.9102 11.5781 44.9102 11.578 44.9102 11.578C44.9101 11.578 44.9101 11.5779 44.9101 11.5779C44.91 11.5779 44.91 11.5778 44.91 11.5778C44.9099 11.5778 44.9099 11.5777 44.9099 11.5777C44.9098 11.5777 44.9098 11.5776 44.9098 11.5776C44.9097 11.5776 44.9097 11.5776 44.9097 11.5775C44.9097 11.5775 44.9096 11.5775 44.9096 11.5774C44.9096 11.5774 44.9095 11.5774 44.9095 11.5773C44.9095 11.5773 44.9094 11.5773 44.9094 11.5772C44.9094 11.5772 44.9093 11.5772 44.9093 11.5771C44.9093 11.5771 44.9092 11.5771 44.9092 11.577C44.9092 11.577 44.9091 11.577 44.9091 11.5769C44.9091 11.5769 44.909 11.5769 44.909 11.5768C44.909 11.5768 44.909 11.5768 44.9089 11.5768C44.9089 11.5767 44.9089 11.5767 44.9088 11.5767C44.9088 11.5766 44.9088 11.5766 44.9087 11.5766C44.9087 11.5765 44.9087 11.5765 44.9086 11.5765C44.9086 11.5764 44.9086 11.5764 44.9085 11.5764C44.9085 11.5764 44.9085 11.5763 44.9085 11.5763C44.9084 11.5763 44.9084 11.5762 44.9084 11.5762C44.9083 11.5762 44.9083 11.5761 44.9083 11.5761C44.9082 11.5761 44.9082 11.576 44.9082 11.576C44.9081 11.576 44.9081 11.576 44.9081 11.5759C44.9081 11.5759 44.908 11.5759 44.908 11.5758C44.908 11.5758 44.9079 11.5758 44.9079 11.5757C44.9079 11.5757 44.9078 11.5757 44.9078 11.5757C44.9078 11.5756 44.9078 11.5756 44.9077 11.5756C44.9077 11.5755 44.9077 11.5755 44.9076 11.5755C44.9076 11.5754 44.9076 11.5754 44.9076 11.5754C44.9075 11.5754 44.9075 11.5753 44.9075 11.5753C44.9074 11.5753 44.9074 11.5752 44.9074 11.5752C44.9073 11.5752 44.9073 11.5752 44.9073 11.5751C44.9073 11.5751 44.9072 11.5751 44.9072 11.575C44.9072 11.575 44.9071 11.575 44.9071 11.575C44.9071 11.5749 44.9071 11.5749 44.907 11.5749C44.907 11.5748 44.907 11.5748 44.9069 11.5748C44.9069 11.5747 44.9069 11.5747 44.9069 11.5747C44.9068 11.5747 44.9068 11.5746 44.9068 11.5746C44.9067 11.5746 44.9067 11.5746 44.9067 11.5745C44.9067 11.5745 44.9066 11.5745 44.9066 11.5744C44.9066 11.5744 44.9065 11.5744 44.9065 11.5744C44.9065 11.5743 44.9065 11.5743 44.9064 11.5743C44.9064 11.5742 44.9064 11.5742 44.9064 11.5742C44.9063 11.5742 44.9063 11.5741 44.9063 11.5741C44.9062 11.5741 44.9062 11.574 44.9062 11.574C44.9062 11.574 44.9061 11.574 44.9061 11.5739C44.9061 11.5739 44.9061 11.5739 44.906 11.5739C44.906 11.5738 44.906 11.5738 44.9059 11.5738C44.9059 11.5738 44.9059 11.5737 44.9059 11.5737C44.9058 11.5737 44.9058 11.5736 44.9058 11.5736C44.9058 11.5736 44.9057 11.5736 44.9057 11.5735C44.9057 11.5735 44.9056 11.5735 44.9056 11.5735C44.9056 11.5734 44.9056 11.5734 44.9055 11.5734C44.9055 11.5733 44.9055 11.5733 44.9055 11.5733C44.9054 11.5733 44.9054 11.5732 44.9054 11.5732C44.9054 11.5732 44.9053 11.5732 44.9053 11.5731C44.9053 11.5731 44.9053 11.5731 44.9052 11.5731C44.9052 11.573 44.9052 11.573 44.9051 11.573C44.9051 11.573 44.9051 11.5729 44.9051 11.5729C44.905 11.5729 44.905 11.5729 44.905 11.5728C44.905 11.5728 44.9049 11.5728 44.9049 11.5728C44.9049 11.5727 44.9049 11.5727 44.9048 11.5727C44.9048 11.5727 44.9048 11.5726 44.9048 11.5726C44.9047 11.5726 44.9047 11.5726 44.9047 11.5725C44.9047 11.5725 44.9046 11.5725 44.9046 11.5725C44.9046 11.5724 44.9046 11.5724 44.9045 11.5724C44.9045 11.5724 44.9045 11.5723 44.9045 11.5723C44.9044 11.5723 44.9044 11.5723 44.9044 11.5722C44.9044 11.5722 44.9043 11.5722 44.9043 11.5722C44.9043 11.5721 44.9043 11.5721 44.9042 11.5721C44.9042 11.5721 44.9042 11.572 44.9042 11.572C44.9042 11.572 44.9041 11.572 44.9041 11.5719C44.9041 11.5719 44.9041 11.5719 44.904 11.5719C44.904 11.5718 44.904 11.5718 44.904 11.5718C44.9039 11.5718 44.9039 11.5717 44.9039 11.5717C44.9039 11.5717 44.9038 11.5717 44.9038 11.5717C44.9038 11.5716 44.9038 11.5716 44.9037 11.5716C44.9037 11.5716 44.9037 11.5715 44.9037 11.5715C44.9037 11.5715 44.9036 11.5715 44.9036 11.5714C44.9036 11.5714 44.9036 11.5714 44.9035 11.5714C44.9035 11.5714 44.9035 11.5713 44.9035 11.5713C44.9034 11.5713 44.9034 11.5713 44.9034 11.5712C44.9034 11.5712 44.9034 11.5712 44.9033 11.5712C44.9033 11.5711 44.9033 11.5711 44.9033 11.5711C44.9032 11.5711 44.9032 11.5711 44.9032 11.571C44.9032 11.571 44.9032 11.571 44.9031 11.571C44.9031 11.5709 44.9031 11.5709 44.9031 11.5709C44.903 11.5709 44.903 11.5709 44.903 11.5708C44.903 11.5708 44.903 11.5708 44.9029 11.5708C44.9029 11.5707 44.9029 11.5707 44.9029 11.5707C44.9028 11.5707 44.9028 11.5707 44.9028 11.5706C44.9028 11.5706 44.9028 11.5706 44.9027 11.5706C44.9027 11.5705 44.9027 11.5705 44.9027 11.5705C44.9027 11.5705 44.9026 11.5705 44.9026 11.5704C44.9026 11.5704 44.9026 11.5704 44.9025 11.5704C44.9025 11.5704 44.9025 11.5703 44.9025 11.5703C44.9025 11.5703 44.9024 11.5703 44.9024 11.5703C44.9024 11.5702 44.9024 11.5702 44.9024 11.5702C44.9023 11.5702 44.9023 11.5701 44.9023 11.5701C44.9023 11.5701 44.9023 11.5701 44.9022 11.5701C44.9022 11.57 44.9022 11.57 44.9022 11.57C44.9021 11.57 44.9021 11.57 44.9021 11.5699C44.9021 11.5699 44.9021 11.5699 44.902 11.5699C44.902 11.5699 44.902 11.5698 44.902 11.5698C44.902 11.5698 44.9019 11.5698 44.9019 11.5698C44.9019 11.5697 44.9019 11.5697 44.9019 11.5697C44.9018 11.5697 44.9018 11.5697 44.9018 11.5696C44.9018 11.5696 44.9018 11.5696 44.9018 11.5696C44.9017 11.5696 44.9017 11.5695 44.9017 11.5695C44.9017 11.5695 44.9017 11.5695 44.9016 11.5695C44.9016 11.5695 44.9016 11.5694 44.9016 11.5694C44.9016 11.5694 44.9015 11.5694 44.9015 11.5694C44.9015 11.5693 44.9015 11.5693 44.9015 11.5693C44.9014 11.5693 44.9014 11.5693 44.9014 11.5692C44.9014 11.5692 44.9014 11.5692 44.9014 11.5692C44.9013 11.5692 44.9013 11.5691 44.9013 11.5691C44.9013 11.5691 44.9013 11.5691 44.9012 11.5691C44.9012 11.5691 44.9012 11.569 44.9012 11.569C44.9012 11.569 44.9011 11.569 44.9011 11.569C44.9011 11.5689 44.9011 11.5689 44.9011 11.5689C44.9011 11.5689 44.901 11.5689 44.901 11.5689C44.901 11.5688 44.901 11.5688 44.901 11.5688C44.901 11.5688 44.9009 11.5688 44.9009 11.5688C44.9009 11.5687 44.9009 11.5687 44.9009 11.5687C44.9008 11.5687 44.9008 11.5687 44.9008 11.5686C44.9008 11.5686 44.9008 11.5686 44.9008 11.5686C44.9007 11.5686 44.9007 11.5686 44.9007 11.5685C44.9007 11.5685 44.9007 11.5685 44.9007 11.5685C44.9006 11.5685 44.9006 11.5685 44.9006 11.5684C44.9006 11.5684 44.9006 11.5684 44.9006 11.5684C44.9005 11.5684 44.9005 11.5684 44.9005 11.5683C44.9005 11.5683 44.9005 11.5683 44.9005 11.5683C44.9004 11.5683 44.9004 11.5683 44.9004 11.5682C44.9004 11.5682 44.9004 11.5682 44.9004 11.5682C44.9003 11.5682 44.9003 11.5682 44.9003 11.5681L44.5115 11.9569ZM44.6277 12.0655C44.6746 12.0968 44.7113 12.1226 44.7389 12.1433L45.0688 11.7034C45.0304 11.6746 44.9847 11.6427 44.9326 11.608L44.6277 12.0655ZM44.7279 12.1345C44.8603 12.2449 45.0615 12.3484 45.306 12.4495L45.5162 11.9415C45.2823 11.8447 45.1454 11.7668 45.0798 11.7122L44.7279 12.1345ZM45.3164 12.4536C45.5932 12.5551 45.8768 12.6065 46.1657 12.6065V12.0567C45.9433 12.0567 45.7238 12.0174 45.5057 11.9374L45.3164 12.4536ZM46.1657 12.6065C46.5362 12.6065 46.8672 12.4977 47.1435 12.2726L46.7962 11.8463C46.6271 11.9841 46.422 12.0567 46.1657 12.0567V12.6065ZM47.1397 12.2756C47.4419 12.0381 47.5911 11.7084 47.5911 11.3172H47.0413C47.0413 11.5528 46.9596 11.7179 46.8 11.8433L47.1397 12.2756ZM47.5911 11.3172C47.5911 10.9129 47.4296 10.5769 47.1077 10.3408L46.7825 10.7842C46.9554 10.911 47.0413 11.0781 47.0413 11.3172H47.5911ZM47.1124 10.3444C46.8063 10.1097 46.4256 10.0031 45.9925 10.0031V10.5529C46.3347 10.5529 46.5891 10.636 46.7778 10.7807L47.1124 10.3444ZM45.9925 10.0031C45.5652 10.0031 45.1539 10.1104 44.7618 10.3201L45.0211 10.8049C45.3384 10.6353 45.6611 10.5529 45.9925 10.5529V10.0031ZM45.0937 10.3763L44.6607 9.90619L44.2563 10.2787L44.6893 10.7488L45.0937 10.3763ZM44.7334 10.0924V7.18521H44.1836V10.0924H44.7334ZM44.4585 7.46012H47.9348V6.91031H44.4585V7.46012Z" fill="black" fill-opacity="0.01"/>
<defs>
<filter id="filter0_d" x="0.422641" y="0.24707" width="62.5065" height="28.3261" filterUnits="userSpaceOnUse" color-interpolation-filters="sRGB">
<feFlood flood-opacity="0" result="BackgroundImageFix"/>
<feColorMatrix in="SourceAlpha" type="matrix" values="0 0 0 0 0 0 0 0 0 0 0 0 0 0 0 0 0 0 127 0" result="hardAlpha"/>
<feOffset dy="4.21896"/>
<feGaussianBlur stdDeviation="2.10948"/>
<feColorMatrix type="matrix" values="0 0 0 0 0 0 0 0 0 0 0 0 0 0 0 0 0 0 0.25 0"/>
<feBlend mode="normal" in2="BackgroundImageFix" result="effect1_dropShadow"/>
<feBlend mode="normal" in="SourceGraphic" in2="effect1_dropShadow" result="shape"/>
</filter>
</defs>
</svg>
